<svg viewBox="-2.721 0 77.954 77.224" xmlns="http://www.w3.org/2000/svg">
  <path xmlns="http://www.w3.org/2000/svg" d="m74.503 38.612-5.431 6.621 2.456 8.109-7.515 4.093-.818 8.481-8.482.818-4.092 7.515-8.109-2.456-6.621 5.431-6.621-5.431-8.183 2.456-4.017-7.515-8.482-.818-.819-8.482L.18 53.343l2.53-8.109-5.431-6.622 5.431-6.621-2.53-8.184 7.589-4.017.819-8.482 8.482-.819L21.087 2.9l8.183 2.531L35.891 0l6.621 5.431 8.109-2.53 4.093 7.589 8.481.819.818 8.482 7.515 4.017-2.456 8.183 5.431 6.621z" fill="#66c6ba" />
  <path d="M39.356 62.165c-11.666 0-19.878-6.192-19.878-18.119V22.343c0-2.998-2.607-3.78-2.607-5.605v-.26c0-.783.651-1.24 1.564-1.24h14.339c.977 0 1.564.457 1.564 1.239v.261c0 1.825-2.868 2.607-2.868 5.605v21.703c0 8.994 3.781 13.23 10.559 13.23 3.976 0 9.646-2.607 9.646-13.23V22.343c0-2.999-2.672-3.781-2.672-5.605v-.261c0-.781.652-1.238 1.564-1.238h8.278c.977 0 1.564.457 1.564 1.239v.261c0 1.825-2.933 2.607-2.933 5.605v21.833c0 11.796-7.364 17.989-18.119 17.989z" fill="#fff" />
</svg>