<svg viewBox="-2.721 0 216.054 77.224" xmlns="http://www.w3.org/2000/svg"><path xmlns="http://www.w3.org/2000/svg" d="m74.503 38.612-5.431 6.621 2.456 8.109-7.515 4.093-.818 8.481-8.482.818-4.092 7.515-8.109-2.456-6.621 5.431-6.621-5.431-8.183 2.456-4.017-7.515-8.482-.818-.819-8.482L.18 53.343l2.53-8.109-5.431-6.622 5.431-6.621-2.53-8.184 7.589-4.017.819-8.482 8.482-.819L21.087 2.9l8.183 2.531L35.891 0l6.621 5.431 8.109-2.53 4.093 7.589 8.481.819.818 8.482 7.515 4.017-2.456 8.183 5.431 6.621z" fill="#66c6ba"/><path d="M39.356 62.165c-11.666 0-19.878-6.192-19.878-18.119V22.343c0-2.998-2.607-3.78-2.607-5.605v-.26c0-.783.651-1.24 1.564-1.24h14.339c.977 0 1.564.457 1.564 1.239v.261c0 1.825-2.868 2.607-2.868 5.605v21.703c0 8.994 3.781 13.23 10.559 13.23 3.976 0 9.646-2.607 9.646-13.23V22.343c0-2.999-2.672-3.781-2.672-5.605v-.261c0-.781.652-1.238 1.564-1.238h8.278c.977 0 1.564.457 1.564 1.239v.261c0 1.825-2.933 2.607-2.933 5.605v21.833c0 11.796-7.364 17.989-18.119 17.989z" fill="#fff"/><path d="M88.163 14.22h2.528v46.639h6.884V43.301h16.436v-2.318H97.645v-2.528h18.895v7.374h-16.436v17.56H88.163V14.22zm4.706 0h27.113v11.94h-17.56v-2.528h15.031v-6.883H95.327v42.145h-2.458V14.22zm4.706 4.565h17.701v2.528h-15.172v12.433h16.436v2.599H97.575V18.786zm31.786-4.635h7.235v44.604h-2.599V16.679h-2.107v44.182H155v-6.744h-11.45v-2.529h13.978v11.8h-28.167V14.15zm9.553 0h2.528v42.004h11.309v2.599h-13.837V14.15zm54.191 49.239c-6.814 0-12.011-1.756-15.453-5.268-3.371-3.371-5.128-8.359-5.128-14.259V14.29h11.941v29.571c0 5.339 2.599 7.586 8.288 7.586 5.549 0 8.569-2.74 8.569-7.586v-29.57h7.235v29.571c0 3.723-.983 7.235-2.88 9.763-2.528 3.442-6.532 5.058-12.713 5.058-3.583 0-6.463-.492-8.64-1.546-4.426-2.037-7.094-6.602-7.094-13.276V18.786h2.528v25.076c0 7.937 4.566 12.292 13.205 12.292s13.065-4.355 13.065-12.292V16.82h-2.177v27.042c0 6.181-4.144 10.115-11.098 10.115-7.024 0-10.747-3.582-10.747-10.115V16.82h-6.953v27.042c0 11.168 6.181 16.999 18.052 16.999 6.181 0 10.396-1.475 13.276-4.495s4.425-7.376 4.425-12.503V14.291h2.527v29.571c0 5.9-1.826 10.817-5.198 14.259-3.371 3.512-8.359 5.268-15.031 5.268z" fill="#649dad"/></svg>