<?xml version="1.0" encoding="utf-8"?>
<!-- Uploaded to: SVG Repo, www.svgrepo.com, Generator: SVG Repo Mixer Tools -->
<svg width="800px" height="800px" viewBox="-17.54 0 96 96" xmlns="http://www.w3.org/2000/svg">
<title>Asset 25</title>
<g id="Layer_2" data-name="Layer 2">
<g id="Layer_1-2" data-name="Layer 1">
<g id="Dropshipping_Icon" data-name="Dropshipping Icon">
<g id="Parachute_Straps" data-name="Parachute Straps">
<line id="Line" x1="2.4333" y1="23.55273" x2="19.51127" y2="60.14268" style="fill:none;stroke:#7a7a7a;stroke-miterlimit:10;stroke-width:0.75px"/>
<line id="Line-2" data-name="Line" x1="58.24703" y1="22.23138" x2="42.53436" y2="60.14268" style="fill:none;stroke:#7a7a7a;stroke-miterlimit:10;stroke-width:0.75px"/>
<line id="Line-3" data-name="Line" x1="42.04143" y1="27.60177" x2="34.47057" y2="60.14268" style="fill:none;stroke:#7a7a7a;stroke-miterlimit:10;stroke-width:0.75px"/>
<line id="Line-4" data-name="Line" x1="20.49219" y1="27.76475" x2="27.485" y2="60.14268" style="fill:none;stroke:#7a7a7a;stroke-miterlimit:10;stroke-width:0.75px"/>
</g>
<path id="Parachute" d="M60.69487,21.673C36.32952-16.43663,12.40754,3.31346.20742,23.263c-.814,1.33109.94383,2.706,2.22588,1.81663,7.07656-4.90845,11.44988-3.192,17.00432,3.67924a1.4652,1.4652,0,0,0,2.22093.05757c7.701-8.59776,12.30419-8.64962,19.321-.20426a1.47688,1.47688,0,0,0,2.32432-.08341c4.9051-6.83887,8.9398-8.63686,14.9432-4.77049C59.6048,24.63272,61.56492,23.03377,60.69487,21.673Z" style="fill:#ff7878"/>
<g id="Box">
<path id="Box-2" data-name="Box" d="M12.68485,64.20266a4.751,4.751,0,0,1,4.751-4.751H44.60705a4.751,4.751,0,0,1,4.751,4.751V91.249A4.75093,4.75093,0,0,1,44.60705,96H17.43587a4.75092,4.75092,0,0,1-4.751-4.751Z" style="fill:#c3c3c3"/>
<path id="Box_Lid" data-name="Box Lid" d="M11.70639,63.36677a4.751,4.751,0,0,1,4.751-4.751h29.1308a4.751,4.751,0,0,1,4.751,4.751v2.77378a4.751,4.751,0,0,1-4.751,4.751H16.45741a4.751,4.751,0,0,1-4.751-4.751Z" style="fill:#7a7a7a"/>
<path id="Box_Handle" data-name="Box Handle" d="M22.90421,74.16974A1.18573,1.18573,0,0,1,24.08994,72.984H37.81552a1.18573,1.18573,0,0,1,0,2.37146H24.08994A1.18573,1.18573,0,0,1,22.90421,74.16974Z" style="fill:#7b7b7b"/>
</g>
<g id="FBA_Stamp" data-name="FBA Stamp">
<path id="FBA_Stamp-2" data-name="FBA Stamp" d="M26.372,83.123a1.50679,1.50679,0,0,1,1.06946-1.85241l15.72229-4.168a1.52639,1.52639,0,0,1,1.86234,1.07518l1.794,6.62416a1.50685,1.50685,0,0,1-1.06947,1.85241l-15.72229,4.168A1.52634,1.52634,0,0,1,28.166,89.74717Z" style="fill:#fdf6cb"/>
<path id="FBA" d="M32.74432,83.37154l-1.664.44156.24005.88724,1.5159-.40227.31626,1.16889-1.51591.40227.56393,2.0843-1.38192.36671-1.43649-5.30932,3.0459-.80827Zm3.03631,2.48482.30317-.08045a1.59043,1.59043,0,0,0,.71118-.33212.47588.47588,0,0,0,.10941-.48941.4811.4811,0,0,0-.34184-.36966,1.59908,1.59908,0,0,0-.78357.06454l-.30317.08045Zm-.583-2.15472.25382-.06736q.64868-.17213.5096-.68615t-.78775-.3419l-.25382.06735Zm-1.94587-1.71757,2.0588-.54633a1.64592,1.64592,0,0,1,1.20928.05646,1.36707,1.36707,0,0,1,.65507.91294,1.41424,1.41424,0,0,1,.03294.70824,1.22851,1.22851,0,0,1-.31713.55961,1.62677,1.62677,0,0,1,.54822.0432,1.04862,1.04862,0,0,1,.41465.19186,1.07936,1.07936,0,0,1,.29326.32973,1.80884,1.80884,0,0,1,.17833.43569,1.60937,1.60937,0,0,1,.04513.69745,1.33122,1.33122,0,0,1-.2352.58316,1.57674,1.57674,0,0,1-.49109.4473,2.80674,2.80674,0,0,1-.7348.30064l-2.221.58937Zm8.59988,1.29522L40.753,81.67653l-.14228,1.93206Zm.6505.95191-1.97419.52388-.06771,1.00664-1.47359.391.58706-5.84629,1.50884-.40039,3.46,4.77235-1.47358.391Z" style="fill:#fab96f"/>
</g>
</g>
</g>
</g>
</svg>