<?xml version="1.0" encoding="utf-8"?>
<svg viewBox="0 0 1400 800" xmlns="http://www.w3.org/2000/svg">
  <defs>
    <linearGradient id="g10" x1="1135.4" y1="94.5" x2="1182.1" y2="94.5" gradientUnits="userSpaceOnUse">
      <stop offset="0" stop-color="#733133"/>
      <stop offset="1" stop-color="#611e3d"/>
    </linearGradient>
    <linearGradient id="g11" x1="1126.6" y1="85.8" x2="1309.4" y2="85.8" gradientUnits="userSpaceOnUse">
      <stop offset="0" stop-color="#e1582c"/>
      <stop offset="1" stop-color="#9b303a"/>
    </linearGradient>
    <linearGradient id="g12" x1="-734.7" y1="-1462.9" x2="-475.1" y2="-1722.5" gradientUnits="userSpaceOnUse">
      <stop offset="0" stop-color="#733133"/>
      <stop offset="1" stop-color="#611e3d"/>
    </linearGradient>
    <linearGradient id="g13" x1="1137.1" y1="196.4" x2="1293.9" y2="196.4" gradientUnits="userSpaceOnUse">
      <stop offset="0" stop-color="#e1582c"/>
      <stop offset="1" stop-color="#9b303a"/>
    </linearGradient>
    <linearGradient id="g14" x1="1139.4" y1="328.6" x2="1296.2" y2="328.6" gradientUnits="userSpaceOnUse">
      <stop offset="0" stop-color="#e1582c"/>
      <stop offset="1" stop-color="#9b303a"/>
    </linearGradient>
    <linearGradient id="g15" x1="1141.6" y1="460.8" x2="1298.6" y2="460.8" gradientUnits="userSpaceOnUse">
      <stop offset="0" stop-color="#e1582c"/>
      <stop offset="1" stop-color="#9b303a"/>
    </linearGradient>
    <linearGradient id="g16" x1="1242.8" y1="293.9" x2="1293.5" y2="293.9" gradientUnits="userSpaceOnUse">
      <stop offset="0" stop-color="#803b36"/>
      <stop offset="0.994" stop-color="#390010"/>
    </linearGradient>
    <linearGradient id="g17" x1="1150.6" y1="170.4" x2="1186" y2="170.4" gradientUnits="userSpaceOnUse">
      <stop offset="0" stop-color="#fec4ac"/>
      <stop offset="1" stop-color="#ffdcc9"/>
    </linearGradient>
    <linearGradient id="g18" x1="1150.6" y1="252.6" x2="1215.5" y2="252.6" gradientUnits="userSpaceOnUse">
      <stop offset="0" stop-color="#fec4ac"/>
      <stop offset="1" stop-color="#ffdcc9"/>
    </linearGradient>
    <linearGradient id="g19" x1="1215.3" y1="268.9" x2="1225.5" y2="268.9" gradientUnits="userSpaceOnUse">
      <stop offset="0" stop-color="#fed849"/>
      <stop offset="1" stop-color="#f9b248"/>
    </linearGradient>
    <linearGradient id="g20" x1="1227.7" y1="263.6" x2="1240.2" y2="263.6" gradientUnits="userSpaceOnUse">
      <stop offset="0" stop-color="#fed849"/>
      <stop offset="1" stop-color="#f9b248"/>
    </linearGradient>
    <linearGradient id="g21" x1="1222.6" y1="271.8" x2="1234.7" y2="271.8" gradientUnits="userSpaceOnUse">
      <stop offset="0" stop-color="#fed849"/>
      <stop offset="1" stop-color="#f9b248"/>
    </linearGradient>
    <linearGradient id="g22" x1="1222.5" y1="258.6" x2="1233.8" y2="258.6" gradientUnits="userSpaceOnUse">
      <stop offset="0" stop-color="#fed849"/>
      <stop offset="1" stop-color="#f9b248"/>
    </linearGradient>
    <linearGradient id="g23" x1="1215.4" y1="261.4" x2="1227.3" y2="261.4" gradientUnits="userSpaceOnUse">
      <stop offset="0" stop-color="#fed849"/>
      <stop offset="1" stop-color="#f9b248"/>
    </linearGradient>
    <linearGradient id="g24" x1="1209.6" y1="280.3" x2="1218.2" y2="280.3" gradientUnits="userSpaceOnUse">
      <stop offset="0" stop-color="#fed849"/>
      <stop offset="1" stop-color="#f9b248"/>
    </linearGradient>
    <linearGradient id="g25" x1="1206.2" y1="276" x2="1213.9" y2="276" gradientUnits="userSpaceOnUse">
      <stop offset="0" stop-color="#fed849"/>
      <stop offset="1" stop-color="#f9b248"/>
    </linearGradient>
    <linearGradient id="g26" x1="1200.5" y1="276" x2="1207.3" y2="276" gradientUnits="userSpaceOnUse">
      <stop offset="0" stop-color="#fed849"/>
      <stop offset="1" stop-color="#f9b248"/>
    </linearGradient>
    <linearGradient id="g27" x1="1200.7" y1="283.9" x2="1209.3" y2="283.9" gradientUnits="userSpaceOnUse">
      <stop offset="0" stop-color="#fed849"/>
      <stop offset="1" stop-color="#f9b248"/>
    </linearGradient>
    <linearGradient id="g28" x1="1195.1" y1="280.3" x2="1206.2" y2="280.3" gradientUnits="userSpaceOnUse">
      <stop offset="0" stop-color="#fed849"/>
      <stop offset="1" stop-color="#f9b248"/>
    </linearGradient>
    <linearGradient id="g29" x1="1206.4" y1="284.1" x2="1216.9" y2="284.1" gradientUnits="userSpaceOnUse">
      <stop offset="0" stop-color="#fed849"/>
      <stop offset="1" stop-color="#f9b248"/>
    </linearGradient>
    <linearGradient id="g30" x1="1201.5" y1="298.1" x2="1257.1" y2="298.1" gradientUnits="userSpaceOnUse">
      <stop offset="0" stop-color="#fa7f3c"/>
      <stop offset="1" stop-color="#ff9436"/>
    </linearGradient>
    <linearGradient id="g31" x1="1249.6" y1="280.3" x2="1256.8" y2="280.3" gradientUnits="userSpaceOnUse">
      <stop offset="0" stop-color="#fed849"/>
      <stop offset="1" stop-color="#f9b248"/>
    </linearGradient>
    <linearGradient id="g32" x1="1244.8" y1="275.3" x2="1253" y2="275.3" gradientUnits="userSpaceOnUse">
      <stop offset="0" stop-color="#fed849"/>
      <stop offset="1" stop-color="#f9b248"/>
    </linearGradient>
    <linearGradient id="g33" x1="1247.8" y1="283.2" x2="1259.5" y2="283.2" gradientUnits="userSpaceOnUse">
      <stop offset="0" stop-color="#fed849"/>
      <stop offset="1" stop-color="#f9b248"/>
    </linearGradient>
    <linearGradient id="g34" x1="1241.1" y1="283.8" x2="1249" y2="283.8" gradientUnits="userSpaceOnUse">
      <stop offset="0" stop-color="#fed849"/>
      <stop offset="1" stop-color="#f9b248"/>
    </linearGradient>
    <linearGradient id="g35" x1="1232.5" y1="282.2" x2="1243.1" y2="282.2" gradientUnits="userSpaceOnUse">
      <stop offset="0" stop-color="#fed849"/>
      <stop offset="1" stop-color="#f9b248"/>
    </linearGradient>
    <linearGradient id="g36" x1="1236.4" y1="275.6" x2="1246.8" y2="275.6" gradientUnits="userSpaceOnUse">
      <stop offset="0" stop-color="#fed849"/>
      <stop offset="1" stop-color="#f9b248"/>
    </linearGradient>
    <linearGradient id="g37" x1="683.9" y1="513.3" x2="1284.7" y2="513.3" gradientUnits="userSpaceOnUse">
      <stop offset="0.003" stop-color="#097386"/>
      <stop offset="1" stop-color="#f79b52"/>
    </linearGradient>
    <linearGradient id="g38" x1="680.5" y1="643.6" x2="1283" y2="643.6" gradientUnits="userSpaceOnUse">
      <stop offset="0.003" stop-color="#b64b37"/>
      <stop offset="1" stop-color="#6f2e36"/>
    </linearGradient>
    <linearGradient id="g39" x1="515.1" y1="271.9" x2="1105.9" y2="271.9" gradientUnits="userSpaceOnUse">
      <stop offset="0.003" stop-color="#097386"/>
      <stop offset="1" stop-color="#f79b52"/>
    </linearGradient>
    <linearGradient id="g40" x1="454.6" y1="635" x2="683.9" y2="635" gradientUnits="userSpaceOnUse">
      <stop offset="0.003" stop-color="#b64b37"/>
      <stop offset="1" stop-color="#9f4634"/>
    </linearGradient>
    <linearGradient id="g41" x1="473.4" y1="271.9" x2="566.8" y2="271.9" gradientUnits="userSpaceOnUse">
      <stop offset="0" stop-color="#ffffff"/>
      <stop offset="0.997" stop-color="#ffffff"/>
    </linearGradient>
    <linearGradient id="g42" x1="454.8" y1="493.4" x2="700.3" y2="493.4" gradientUnits="userSpaceOnUse">
      <stop offset="0" stop-color="#ffffff"/>
      <stop offset="0.997" stop-color="#ffffff"/>
    </linearGradient>
    <linearGradient id="g46" x1="685.3" y1="727.5" x2="697.7" y2="727.5" gradientUnits="userSpaceOnUse">
      <stop offset="0" stop-color="#ffffff"/>
      <stop offset="0.997" stop-color="#ffffff"/>
    </linearGradient>
    <linearGradient id="g47" x1="825.8" y1="126.6" x2="992.7" y2="126.6" gradientUnits="userSpaceOnUse">
      <stop offset="0" stop-color="#ff7a4e"/>
      <stop offset="1" stop-color="#ffa038"/>
    </linearGradient>
    <linearGradient id="g48" x1="895" y1="110.4" x2="922.1" y2="110.4" gradientUnits="userSpaceOnUse">
      <stop offset="0" stop-color="#fec4ac"/>
      <stop offset="1" stop-color="#ffdcc9"/>
    </linearGradient>
    <linearGradient id="g49" x1="519.6" y1="210.8" x2="686.6" y2="210.8" gradientUnits="userSpaceOnUse">
      <stop offset="0" stop-color="#ff7a4e"/>
      <stop offset="1" stop-color="#ffa038"/>
    </linearGradient>
    <linearGradient id="g50" x1="575.7" y1="154.7" x2="582.6" y2="154.7" gradientUnits="userSpaceOnUse">
      <stop offset="0" stop-color="#fec4ac"/>
      <stop offset="1" stop-color="#ffdcc9"/>
    </linearGradient>
    <linearGradient id="g51" x1="979.7" y1="150.7" x2="1114.5" y2="150.7" gradientUnits="userSpaceOnUse">
      <stop offset="0.006" stop-color="#9f4634"/>
      <stop offset="1" stop-color="#6f2e36"/>
    </linearGradient>
    <linearGradient id="g52" x1="977.4" y1="273.8" x2="1098.7" y2="273.8" gradientUnits="userSpaceOnUse">
      <stop offset="0" stop-color="#7e82e6"/>
      <stop offset="1" stop-color="#7e82e6"/>
    </linearGradient>
    <linearGradient id="g53" x1="922.1" y1="284.7" x2="985.2" y2="284.7" gradientUnits="userSpaceOnUse">
      <stop offset="0" stop-color="#5988f4"/>
      <stop offset="1" stop-color="#4870f6"/>
    </linearGradient>
    <linearGradient id="g54" x1="1088.8" y1="293" x2="1104.6" y2="293" gradientUnits="userSpaceOnUse">
      <stop offset="0" stop-color="#7e82e6"/>
      <stop offset="1" stop-color="#7e82e6"/>
    </linearGradient>
    <linearGradient id="g55" x1="796" y1="497.8" x2="878.5" y2="497.8" gradientUnits="userSpaceOnUse">
      <stop offset="0.003" stop-color="#2f5995"/>
      <stop offset="1" stop-color="#1c498a"/>
    </linearGradient>
    <linearGradient id="g56" x1="673.5" y1="383.5" x2="808.2" y2="383.5" gradientUnits="userSpaceOnUse">
      <stop offset="0.003" stop-color="#2f5995"/>
      <stop offset="1" stop-color="#1c498a"/>
    </linearGradient>
    <linearGradient id="g57" x1="673.5" y1="383.5" x2="808.2" y2="383.5" gradientUnits="userSpaceOnUse">
      <stop offset="0" stop-color="#ffffff"/>
      <stop offset="0.997" stop-color="#ffffff"/>
    </linearGradient>
    <linearGradient id="g58" x1="675.1" y1="427.9" x2="718.9" y2="427.9" gradientUnits="userSpaceOnUse">
      <stop offset="0.003" stop-color="#ffffff"/>
      <stop offset="1" stop-color="#ffffff"/>
    </linearGradient>
    <style>
		.s0 { fill: url(#g1) } 
		.s1 { fill: #762716 } 
		.s2 { fill: #db9688 } 
		.s3 { fill: url(#g2) } 
		.s4 { opacity: .3;fill: url(#g3) } 
		.s5 { opacity: .1;fill: url(#g4) } 
		.s6 { fill: url(#g5) } 
		.s7 { fill: url(#g6) } 
		.s8 { fill: url(#g7) } 
		.s9 { fill: url(#g8) } 
		.s10 { fill: #c6442e } 
		.s11 { fill: #622139 } 
		.s12 { fill: #4a192b } 
		.s13 { opacity: .5;fill: #ffffff } 
		.s14 { fill: #2a629f } 
		.s15 { fill: #ffffff } 
		.s16 { fill: #142a63 } 
		.s17 { fill: #06154e } 
		.s18 { fill: #681b14 } 
		.s19 { fill: #b74837 } 
		.s20 { fill: #340e0a } 
		.s21 { fill: #f59390 } 
		.s22 { fill: #ffd7be } 
		.s23 { fill: #a85552 } 
		.s24 { fill: #ef706a } 
		.s25 { fill: #ffe7d8 } 
		.s26 { fill: url(#g9) } 
		.s27 { opacity: .1;fill: #291b38 } 
		.s28 { fill: #e2b0bc } 
		.s29 { fill: url(#g10) } 
		.s30 { fill: url(#g11) } 
		.s31 { fill: url(#g12) } 
		.s32 { fill: url(#g13) } 
		.s33 { fill: url(#g14) } 
		.s34 { fill: url(#g15) } 
		.s35 { fill: #5893d9 } 
		.s36 { fill: #1c3e7b } 
		.s37 { fill: #041a56 } 
		.s38 { fill: url(#g16) } 
		.s39 { fill: url(#g17) } 
		.s40 { fill: #fcac90 } 
		.s41 { fill: #8e8100 } 
		.s42 { fill: #5d5709 } 
		.s43 { fill: url(#g18) } 
		.s44 { fill: #9b8700 } 
		.s45 { fill: #817800 } 
		.s46 { fill: #4e4508 } 
		.s47 { fill: url(#g19) } 
		.s48 { fill: url(#g20) } 
		.s49 { fill: url(#g21) } 
		.s50 { fill: url(#g22) } 
		.s51 { fill: url(#g23) } 
		.s52 { fill: #f9aa4b } 
		.s53 { opacity: .3;fill: #ffffff } 
		.s54 { fill: url(#g24) } 
		.s55 { fill: url(#g25) } 
		.s56 { fill: url(#g26) } 
		.s57 { fill: url(#g27) } 
		.s58 { fill: url(#g28) } 
		.s59 { fill: url(#g29) } 
		.s60 { fill: url(#g30) } 
		.s61 { fill: #ff8c3c } 
		.s62 { fill: url(#g31) } 
		.s63 { fill: url(#g32) } 
		.s64 { fill: url(#g33) } 
		.s65 { fill: url(#g34) } 
		.s66 { fill: url(#g35) } 
		.s67 { fill: url(#g36) } 
		.s68 { opacity: .5;fill: #c04535 } 
		.s69 { fill: url(#g37) } 
		.s70 { fill: #5da5b1 } 
		.s71 { fill: url(#g38) } 
		.s72 { fill: #6f2e36 } 
		.s73 { fill: #9f4634 } 
		.s74 { fill: #358e9d } 
		.s75 { fill: url(#g39) } 
		.s76 { fill: url(#g40) } 
		.s77 { opacity: .3;fill: #358e9d } 
		.s78 { opacity: .5;fill: #0e424a } 
		.s79 { opacity: .3;fill: url(#g41) } 
		.s80 { opacity: .1;fill: url(#g42) } 
		.s81 { opacity: .1;fill: #0e424a } 
		.s82 { opacity: .5;fill: #5da5b1 } 
		.s83 { opacity: .5;fill: #6f2e36 } 
		.s84 { opacity: .1;fill: #ffffff } 
		.s85 { fill: url(#g43) } 
		.s86 { fill: url(#g44) } 
		.s87 { fill: url(#g45) } 
		.s88 { opacity: .1;fill: url(#g46) } 
		.s89 { fill: url(#g47) } 
		.s90 { fill: #b53f35 } 
		.s91 { fill: #cd5137 } 
		.s92 { fill: #9c3634 } 
		.s93 { fill: #79b3b7 } 
		.s94 { fill: #acdbe1 } 
		.s95 { fill: url(#g48) } 
		.s96 { fill: #e5e6fa } 
		.s97 { fill: #7e82e6 } 
		.s98 { opacity: .5;fill: #9c3634 } 
		.s99 { fill: #2dd4bf } 
		.s100 { fill: #f5897f } 
		.s101 { fill: #ffb092 } 
		.s102 { fill: url(#g49) } 
		.s103 { fill: #1d589a } 
		.s104 { fill: #3574a8 } 
		.s105 { fill: url(#g50) } 
		.s106 { fill: #d2deeb } 
		.s107 { fill: url(#g51) } 
		.s108 { fill: url(#g52) } 
		.s109 { fill: #323498 } 
		.s110 { fill: #d55951 } 
		.s111 { opacity: .5;fill: #f5897f } 
		.s112 { fill: #262772 } 
		.s113 { fill: #d41644 } 
		.s114 { fill: #fae3e9 } 
		.s115 { fill: #4f72ea } 
		.s116 { fill: #870121 } 
		.s117 { opacity: .3;fill: #323498 } 
		.s118 { fill: #5988f4 } 
		.s119 { fill: url(#g53) } 
		.s120 { fill: #454899 } 
		.s121 { fill: #ed8e8c } 
		.s122 { fill: #5f62ad } 
		.s123 { opacity: .5;fill: #5f62ad } 
		.s124 { fill: #f6d0da } 
		.s125 { opacity: .3;fill: #b64b37 } 
		.s126 { opacity: .1;fill: url(#g54) } 
		.s127 { opacity: .3;fill: #5f62ad } 
		.s128 { fill: #142a64 } 
		.s129 { fill: url(#g55) } 
		.s130 { fill: url(#g56) } 
		.s131 { fill: #152a63 } 
		.s132 { fill: #2f5995 } 
		.s133 { opacity: .1;fill: url(#g57) } 
		.s134 { opacity: .1;fill: url(#g58) } 
		.s135 { fill: #ff006a } 
		.s136 { fill: #ff0002 } 
	</style>
  </defs>
  <g id="Layer 1" transform="matrix(1, 0, 0, 1, -7.105427357601002e-15, -7.105427357601002e-15)">
    <g id="&lt;Group&gt;">
      <g id="&lt;Clip Group&gt;">
        <g id="&lt;Group&gt;">
          <g id="&lt;Group&gt;">
            <g id="&lt;Group&gt;">
              <g id="&lt;Group&gt;"/>
              <g id="&lt;Group&gt;">
                <g id="&lt;Group&gt;" style="opacity: .4"/>
              </g>
              <g id="&lt;Group&gt;">
                <g id="&lt;Group&gt;" style="opacity: .4"/>
              </g>
              <g id="&lt;Group&gt;">
                <g id="&lt;Group&gt;" style="opacity: .4"/>
                <g id="&lt;Group&gt;"/>
              </g>
            </g>
          </g>
          <g id="&lt;Group&gt;" style="opacity: .3">
            <g id="&lt;Group&gt;">
              <g id="&lt;Group&gt;">
                <g id="&lt;Group&gt;"/>
                <g id="&lt;Group&gt;">
                  <path id="&lt;Path&gt;" class="s10" d="m1307 580.2h-163.9l-2.3 6.1h166.2z"/>
                </g>
                <g id="&lt;Group&gt;">
                  <path id="&lt;Path&gt;" class="s11" d="m1329.1 586.3l-2.1-6.1h-20v6.1z"/>
                </g>
                <g id="&lt;Group&gt;" style="opacity: .5">
                  <path id="&lt;Path&gt;" class="s11" d="m1307 586.3v-2.1h-165.4l-0.8 2.1z"/>
                </g>
                <g id="&lt;Group&gt;">
                  <path id="&lt;Path&gt;" class="s12" d="m1329.1 586.3l-0.8-2.1h-21.3v2.1z"/>
                </g>
                <path id="&lt;Path&gt;" class="s13" d="m1131.3 741.3l0.6-26.9v0.3l-0.3 26.6z"/>
              </g>
              <g id="&lt;Group&gt;">
                <g id="&lt;Group&gt;"/>
                <g id="&lt;Group&gt;"/>
                <g id="&lt;Group&gt;"/>
              </g>
              <g id="&lt;Group&gt;">
                <g id="&lt;Group&gt;">
                  <g id="&lt;Group&gt;">
                    <g id="&lt;Group&gt;"/>
                    <g id="&lt;Group&gt;"/>
                  </g>
                  <g id="&lt;Group&gt;"/>
                </g>
                <g id="&lt;Group&gt;"/>
                <g id="&lt;Group&gt;"/>
              </g>
              <g id="&lt;Group&gt;">
                <g id="&lt;Group&gt;">
                  <g id="&lt;Group&gt;">
                    <g id="&lt;Group&gt;">
                      <path id="&lt;Path&gt;" class="s21" d="m1185.1 630.8l2.9-37.9h52.8l4 37.9z"/>
                    </g>
                    <g id="&lt;Group&gt;">
                      <path id="&lt;Path&gt;" class="s22" d="m1185.1 630.8l-39-3.9 3-34h38.9z"/>
                    </g>
                  </g>
                  <g id="&lt;Group&gt;">
                    <path id="&lt;Path&gt;" class="s23" d="m1226.6 623.7l-26.3-0.3-0.8 4.8h28.1z"/>
                  </g>
                </g>
                <g id="&lt;Group&gt;">
                  <path id="&lt;Path&gt;" class="s24" d="m1247.2 630.8l1.3 4.2-65.8-0.1 0.4-4.2z"/>
                </g>
                <g id="&lt;Group&gt;">
                  <path id="&lt;Path&gt;" class="s25" d="m1182.7 634.9l-38.6-4.1 0.3-4 38.7 3.9z"/>
                </g>
              </g>
              <g id="&lt;Group&gt;">
                <g id="&lt;Group&gt;">
                  <g id="&lt;Group&gt;">
                    <g id="&lt;Group&gt;">
                      <path id="&lt;Path&gt;" class="s21" d="m1235.8 623.5l2.3-30.6h42.5l3.3 30.6z"/>
                    </g>
                    <g id="&lt;Group&gt;">
                      <path id="&lt;Path&gt;" class="s22" d="m1235.8 623.5l-31.4-3.2 2.4-27.4h31.3z"/>
                    </g>
                  </g>
                  <g id="&lt;Group&gt;">
                    <path id="&lt;Path&gt;" class="s23" d="m1269.2 617.7l-21.2-0.2-0.6 3.8h22.6z"/>
                  </g>
                </g>
                <g id="&lt;Group&gt;">
                  <path id="&lt;Path&gt;" class="s24" d="m1285.8 623.5l1 3.3h-52.9l0.3-3.5z"/>
                </g>
                <g id="&lt;Group&gt;">
                  <path id="&lt;Path&gt;" class="s25" d="m1233.9 626.8l-31.1-3.3 0.2-3.3 31.2 3.1z"/>
                </g>
              </g>
            </g>
          </g>
          <path id="&lt;Path&gt;" class="s15" d="m1346.8 541.3h-1190.5v9.6h1190.5z"/>
          <g id="&lt;Group&gt;">
            <path id="&lt;Compound Path&gt;" fillrule="evenodd" class="s28" d="m1341.9 90v460.9h-32.9l-1.7-90.1-2.3-127v5.2h-123l-4.4 121.8h6.1l6.7-52.2 47.1-4.1 2.4 2.2-2.1 23.8 8 12.4-0.5-7.1 20.4-2.7-21.3 2.8-0.2-3 21.4-3h36.5l-0.7 3h-1.3l-2.3 27.9h9.5v10.5h-130.1l-1.4 38.7 15.6-2.2 65.8-0.1-1.3 5.5h-2.4l-0.4 5.4 42.4-0.1-1 4.5h-1.9l-2.2 27.9h-147.3l-7.8-465.1c0 0 121.1 0 121.1 0 0 0 52.7 0 52.7 0zm-150.1 423.4c0 0-16.2 2.1-16.2 2.2zm-3.6-347.2l2.2-3.5 3.2 5 3-1.8 2 2.5 1.4-3.5 4.1 4 2.4-3 0.9 4.4h1.3l-6.3 26h21.7v-3.5h1.8v-3.4h-3.9v-3.5h5.1v-3.5h-7.6v-3.5h68.2v3.5h7.6v3.5h-5.1v3.5h4v3.4h-1.9v3.5h10l-1.9-101.9h-109.6zm116.6 162.4l-2.3-121.8h-115.8l-1.8 50.3 35.6-4.5h3.6v5.5l-3.3 0.5 47.2-6 3.6 1.4 2 41.5 28.6 2.1v31z"/>
            <g id="&lt;Group&gt;">
              <g id="&lt;Group&gt;">
                <path id="&lt;Path&gt;" class="s29" d="m1182.1 94.5h-46.7l7.9 469h21.9z"/>
                <path id="&lt;Compound Path&gt;" fillrule="evenodd" class="s30" d="m1309.4 572.2h-174.7l-8.1-486.4h173.8zm-166.1-8.7h157.2l-8.8-469h-156.3z"/>
                <path id="&lt;Path&gt;" class="s31" d="m1333.2 90v482.2h-23.8l-0.5-28-0.4-20.2-1.6-84.9-0.3-17.1-6.2-336.2z"/>
              </g>
              <path id="&lt;Path&gt;" class="s32" d="m1293.9 206.8h-156.6l-0.2-10.4h156.8z"/>
              <path id="&lt;Path&gt;" class="s33" d="m1296.2 339.1h-156.7l-0.1-10.5h156.8z"/>
              <path id="&lt;Path&gt;" class="s34" d="m1298.6 471.3h-156.8l-0.2-10.5h157z"/>
              <g id="&lt;Group&gt;">
                <path id="&lt;Path&gt;" class="s10" d="m1307 580.2h-163.9l-2.3-8h166.2z"/>
              </g>
              <g id="&lt;Group&gt;">
                <path id="&lt;Path&gt;" class="s11" d="m1329.1 572.2l-2.1 8h-20v-8z"/>
              </g>
              <g id="&lt;Group&gt;" style="opacity: .5">
                <path id="&lt;Path&gt;" class="s11" d="m1307 572.2v2.7h-165.4l-0.8-2.7z"/>
              </g>
              <g id="&lt;Group&gt;">
                <path id="&lt;Path&gt;" class="s12" d="m1329.1 572.2l-0.8 2.7h-21.3v-2.7z"/>
              </g>
              <path id="&lt;Path&gt;" class="s13" d="m1247.7 85.8h-121.1l5.3 316.8-2.1-312.7z"/>
            </g>
            <g id="&lt;Group&gt;">
              <g id="&lt;Group&gt;">
                <g id="&lt;Group&gt;">
                  <path id="&lt;Path&gt;" class="s35" d="m1283.7 192.9h-48.1v3.5h48.1z"/>
                </g>
                <g id="&lt;Group&gt;">
                  <path id="&lt;Path&gt;" class="s36" d="m1235.6 192.9h-20.2v3.5h20.2z"/>
                </g>
              </g>
              <g id="&lt;Group&gt;">
                <g id="&lt;Group&gt;">
                  <path id="&lt;Path&gt;" class="s36" d="m1285.5 189.4h-48v3.5h48z"/>
                </g>
                <g id="&lt;Group&gt;">
                  <path id="&lt;Path&gt;" class="s37" d="m1237.5 189.4h-20.2v3.5h20.2z"/>
                </g>
              </g>
              <g id="&lt;Group&gt;">
                <g id="&lt;Group&gt;">
                  <path id="&lt;Path&gt;" class="s36" d="m1281.6 186h-48.1v3.4h48.1z"/>
                </g>
                <g id="&lt;Group&gt;">
                  <path id="&lt;Path&gt;" class="s37" d="m1233.5 186h-20.2v3.4h20.2z"/>
                </g>
              </g>
              <g id="&lt;Group&gt;">
                <g id="&lt;Group&gt;">
                  <path id="&lt;Path&gt;" class="s35" d="m1286.7 182.5h-48.1v3.5h48.1z"/>
                </g>
                <g id="&lt;Group&gt;">
                  <path id="&lt;Path&gt;" class="s36" d="m1238.6 182.5h-20.2v3.5h20.2z"/>
                </g>
              </g>
              <g id="&lt;Group&gt;">
                <g id="&lt;Group&gt;">
                  <path id="&lt;Path&gt;" class="s36" d="m1279.1 179h-48.1v3.5h48.1z"/>
                </g>
                <g id="&lt;Group&gt;">
                  <path id="&lt;Path&gt;" class="s37" d="m1231 179h-20.2v3.5h20.2z"/>
                </g>
              </g>
            </g>
            <g id="&lt;Group&gt;">
              <g id="&lt;Group&gt;">
                <path id="&lt;Path&gt;" class="s14" d="m1222.3 460.8h-47.3l6.7-52.2 47.1-4.1z"/>
              </g>
              <path id="&lt;Path&gt;" class="s15" d="m1184.4 452.6l4.7-36.3 30.4-2.7-4.5 39z"/>
              <g id="&lt;Group&gt;">
                <path id="&lt;Path&gt;" class="s16" d="m1228.8 404.5l2.4 2.2-4.8 54.1h-4.1z"/>
              </g>
              <g id="&lt;Group&gt;">
                <path id="&lt;Path&gt;" class="s17" d="m1229.1 430.5l19.4 30.3h-22.1z"/>
              </g>
            </g>
            <g id="&lt;Group&gt;">
              <g id="&lt;Group&gt;">
                <path id="&lt;Path&gt;" class="s38" d="m1293.5 328.6h-45.9l-4.8-34.7 50.7 3.7z"/>
              </g>
              <path id="&lt;Path&gt;" class="s15" d="m1251.4 324.3l-3.5-25.7 41.3 3v22.7z"/>
            </g>
            <g id="&lt;Group&gt;">
              <g id="&lt;Group&gt;">
                <g id="&lt;Group&gt;">
                  <path id="&lt;Path&gt;" class="s39" d="m1150.6 170.4l6.4 26h23.8l5.2-26z"/>
                </g>
                <g id="&lt;Group&gt;">
                  <path id="&lt;Path&gt;" class="s40" d="m1180.8 196.4h12.9l6.3-26h-14z"/>
                </g>
                <g id="&lt;Group&gt;">
                  <path id="&lt;Path&gt;" class="s41" d="m1152.3 170.4l-2.5-12.4 5 8.3 2.2-10.2 2.4 11.7 1.3-5 2.4 4.4 3.1-8.2 1.6 9.6 1.8-2.7 1.4 2.5 3.6-8.4 1.4 8.2 0.8-2.7 1.7 2.3 3.2-5 2.2 5.6 4.1-2.4 2 2.5 1.3-3.6 4.2 4.1 2.4-3 0.8 4.4z"/>
                </g>
              </g>
              <g id="&lt;Group&gt;">
                <path id="&lt;Path&gt;" class="s42" d="m1149.8 158l5.5 6.1-0.5 2.2z"/>
              </g>
              <g id="&lt;Group&gt;">
                <path id="&lt;Path&gt;" class="s42" d="m1157 156.1l3.1 8.9-0.7 2.8z"/>
              </g>
              <g id="&lt;Group&gt;">
                <path id="&lt;Path&gt;" class="s42" d="m1166.2 159l2.6 8.1-1 1.5z"/>
              </g>
              <g id="&lt;Group&gt;">
                <path id="&lt;Path&gt;" class="s42" d="m1174.6 160l1.7 7.1-0.3 1.1z"/>
              </g>
              <g id="&lt;Group&gt;">
                <path id="&lt;Path&gt;" class="s42" d="m1181.7 162.8l3.2 5-1 0.6z"/>
              </g>
            </g>
            <g id="&lt;Group&gt;">
              <g id="&lt;Group&gt;">
                <g id="&lt;Group&gt;">
                  <path id="&lt;Path&gt;" class="s43" d="m1211.9 252.6l-61.3 7.8 3.1 68.2h61.8z"/>
                </g>
                <path id="&lt;Path&gt;" class="s15" d="m1158.1 324.1l-2.8-59.8 52.3-6.6 3.2 66.4z"/>
              </g>
              <g id="&lt;Group&gt;">
                <path id="&lt;Path&gt;" class="s40" d="m1211.9 252.6h3.6v5.5l-3.3 0.5z"/>
              </g>
            </g>
            <g id="&lt;Group&gt;">
              <g id="&lt;Group&gt;">
                <g id="&lt;Group&gt;">
                  <g id="&lt;Group&gt;">
                    <path id="&lt;Path&gt;" class="s18" d="m1258.2 432.9l1.6 27.9h29.3l2.3-27.9z"/>
                  </g>
                  <g id="&lt;Group&gt;">
                    <path id="&lt;Path&gt;" class="s19" d="m1258.2 432.9l-21.6 2.9 1.6 25h21.6z"/>
                  </g>
                </g>
                <g id="&lt;Group&gt;">
                  <path id="&lt;Path&gt;" class="s20" d="m1281.3 438.2l-14.7 0.2-0.4-3.5h15.6z"/>
                </g>
              </g>
              <g id="&lt;Group&gt;">
                <path id="&lt;Path&gt;" class="s20" d="m1292.7 432.9l0.7-3h-36.5l0.2 3.2z"/>
              </g>
              <g id="&lt;Group&gt;">
                <path id="&lt;Path&gt;" class="s18" d="m1256.9 429.9l-21.4 3 0.1 3 21.5-2.8z"/>
              </g>
            </g>
            <g id="&lt;Group&gt;">
              <g id="&lt;Group&gt;">
                <g id="&lt;Group&gt;">
                  <g id="&lt;Group&gt;">
                    <path id="&lt;Path&gt;" class="s21" d="m1185.1 513.2l2.9 50.3h52.8l4-50.3z"/>
                  </g>
                  <g id="&lt;Group&gt;">
                    <path id="&lt;Path&gt;" class="s22" d="m1185.1 513.2l-39 5.2 3 45.1h38.9z"/>
                  </g>
                </g>
                <g id="&lt;Group&gt;">
                  <path id="&lt;Path&gt;" class="s23" d="m1226.6 522.6l-26.3 0.5-0.8-6.3h28.1z"/>
                </g>
              </g>
              <g id="&lt;Group&gt;">
                <path id="&lt;Path&gt;" class="s24" d="m1247.2 513.2l1.3-5.5-65.8 0.1 0.4 5.7z"/>
              </g>
              <g id="&lt;Group&gt;">
                <path id="&lt;Path&gt;" class="s25" d="m1182.7 507.8l-38.6 5.4 0.3 5.3 38.7-5z"/>
              </g>
            </g>
            <g id="&lt;Group&gt;">
              <g id="&lt;Group&gt;">
                <g id="&lt;Group&gt;">
                  <g id="&lt;Group&gt;">
                    <path id="&lt;Path&gt;" class="s21" d="m1235.8 523l2.3 40.5h42.5l3.3-40.5z"/>
                  </g>
                  <g id="&lt;Group&gt;">
                    <path id="&lt;Path&gt;" class="s22" d="m1235.8 523l-31.4 4.2 2.4 36.3h31.3z"/>
                  </g>
                </g>
                <g id="&lt;Group&gt;">
                  <path id="&lt;Path&gt;" class="s23" d="m1269.2 530.6l-21.2 0.3-0.6-5.1h22.6z"/>
                </g>
              </g>
              <g id="&lt;Group&gt;">
                <path id="&lt;Path&gt;" class="s24" d="m1285.8 523l1-4.5-52.9 0.1 0.3 4.6z"/>
              </g>
              <g id="&lt;Group&gt;">
                <path id="&lt;Path&gt;" class="s25" d="m1233.9 518.6l-31.1 4.4 0.2 4.3 31.2-4.1z"/>
              </g>
            </g>
            <g id="&lt;Group&gt;">
              <g id="&lt;Group&gt;">
                <path id="&lt;Path&gt;" class="s44" d="m1227.6 292.1c0 0 7.6-0.8 10.2 2.2 1.7 2.2 1.7 2.2 1.7 2.2 0 0 18.8-13.4 18.3 1.6-0.1 0-30.2 0.1-30.2 0.1z"/>
              </g>
              <g id="&lt;Group&gt;">
                <path id="&lt;Path&gt;" class="s45" d="m1227 291.7v6.5h-23.1c0 0-9.5-8.8-2.4-10.7 7.1-1.9 13.8 2.9 13.9 3 0-0.2-3.3-11.1 2.8-11.8 6.1-0.7 8.8 13 8.8 13z"/>
              </g>
              <g id="&lt;Group&gt;">
                <g id="&lt;Group&gt;">
                  <path id="&lt;Path&gt;" class="s46" d="m1245.7 314.3c-0.1 0-0.2-0.1-0.2-0.3v-29.9c0-0.1 0.1-0.2 0.2-0.2 0.2 0 0.3 0.1 0.3 0.2v29.9c0 0.2-0.1 0.3-0.3 0.3z"/>
                </g>
                <g id="&lt;Group&gt;">
                  <g id="&lt;Group&gt;">
                    <path id="&lt;Path&gt;" class="s46" d="m1227.3 300.9c-0.2 0-0.3-0.1-0.3-0.2v-29.9c0-0.1 0.1-0.3 0.3-0.3 0.1 0 0.3 0.2 0.3 0.3v29.9c0 0.1-0.2 0.2-0.3 0.2z"/>
                  </g>
                  <g id="&lt;Group&gt;">
                    <g id="&lt;Group&gt;">
                      <path id="&lt;Path&gt;" class="s47" d="m1219.2 268.9c0 0-6.2 3.8-2.9 8.4 3.4 4.5 9.2-1.8 9.2-1.8v-4.9z"/>
                      <path id="&lt;Path&gt;" class="s48" d="m1232.4 263.8c0 0 6.1-1.6 7.6 3.9 1.5 5.5-4.3 9.3-9.3 5.1-3.5-2.2-2.9-4.1-2.9-4.1z"/>
                      <path id="&lt;Path&gt;" class="s49" d="m1224.4 272.1c0 0-4.5 7.2 0.6 9.5 5 2.4 14.2-1.4 7.2-9.8-7.1 0-7.8 0.3-7.8 0.3z"/>
                      <path id="&lt;Path&gt;" class="s50" d="m1222.5 263.8c0 0 1.8-6.9 7.1-4.8 5.3 2 5.5 8.8 1 10.6-4.5 1.8-8.1-0.6-8.1-0.6z"/>
                      <path id="&lt;Path&gt;" class="s51" d="m1222.2 271.8c0 0-10.7-3.9-5.2-9 5.4-5 10.3 4.8 10.3 4.8z"/>
                      <g id="&lt;Group&gt;">
                        <path id="&lt;Path&gt;" class="s52" d="m1233.9 270.4c0 2.1-3.3 2.8-6.8 2.8-3.4 0-5.4 0.4-5.4-1.6 0-2.1 2.5-4.9 5.9-4.9 3.5 0 6.3 1.7 6.3 3.7z"/>
                      </g>
                    </g>
                    <path id="&lt;Path&gt;" class="s53" d="m1224.4 271.8c0 0 5-4.9 7.7-1.8 0.3 0.5-4.8 3-7.7 1.8z"/>
                  </g>
                </g>
                <g id="&lt;Group&gt;">
                  <g id="&lt;Group&gt;">
                    <path id="&lt;Path&gt;" class="s46" d="m1216.9 325.9c-0.2 0-0.3-0.1-0.3-0.3-0.2-11-2.8-21-4.9-27.5-2.3-7.1-4.5-11.5-4.5-11.6-0.1-0.2-0.1-0.4 0.1-0.5 0.2 0 0.4 0 0.5 0.2 0 0 2.3 4.6 4.6 11.6 2.1 6.6 4.7 16.7 4.9 27.8 0 0.2-0.2 0.3-0.4 0.3q0 0 0 0z"/>
                  </g>
                  <g id="&lt;Group&gt;">
                    <path id="&lt;Path&gt;" class="s54" d="m1212.3 280.3c0 0 10.1-0.4 3.8 6.4-6 0.9-6.5-2.8-6.5-3 0.1-0.1 2.7-3.4 2.7-3.4z"/>
                    <path id="&lt;Path&gt;" class="s55" d="m1207 282.9c0 0-3.1-6.7 3.3-6.9 6.4-0.2 2.5 6.8 1.7 7.6-0.8 0.9-5-0.7-5-0.7z"/>
                    <path id="&lt;Path&gt;" class="s56" d="m1203.4 284.8c0 0-5.5-5.4-1.3-8.1 4.2-2.7 6 2.5 4.9 6.5-3.1 0.5-3.6 1.6-3.6 1.6z"/>
                    <path id="&lt;Path&gt;" class="s57" d="m1201.3 285.7c0 0-2.9 8 3.7 8.3 6.7 0.3 3.7-8.4 3.7-8.4l-4.5-1.7z"/>
                    <path id="&lt;Path&gt;" class="s58" d="m1195.1 283.3c-0.3 6.7 8.9 7.1 11.1 1.1-1.7-1.1-10.9-7.9-11.1-1.1z"/>
                    <path id="&lt;Path&gt;" class="s59" d="m1207 284.5c0 0-1.7 3.6 0.6 6 2.2 2.4 7.9 1.1 9-1.4 1.2-2.5-1.6-4.8-5.1-5-2-0.1-4.5 0.4-4.5 0.4z"/>
                    <path id="&lt;Path&gt;" class="s52" d="m1213.6 284.1c0 0.9-3.4 2.3-6.1 2.3-2.7 0-3.7-1.4-3.7-2.3 0-0.8 2.2-1.5 4.9-1.5 2.7 0 4.9 0.7 4.9 1.5z"/>
                    <path id="&lt;Path&gt;" class="s53" d="m1211.7 284.1c0 0.2-0.8 0-2.4 0-1.6 0-3.3 0.2-3.3 0 0-0.3 1.7-0.9 3.3-0.9 1.6 0 2.4 0.6 2.4 0.9z"/>
                  </g>
                </g>
                <path id="&lt;Path&gt;" class="s60" d="m1257.1 298.1l-1.2 3.3-8.3 23.5c-0.8 2.2-2.9 3.7-5.3 3.7h-26c-2.4 0-4.5-1.5-5.3-3.7l-9.5-26.6z"/>
                <g id="&lt;Group&gt;">
                  <path id="&lt;Path&gt;" class="s61" d="m1261.1 298.1l-2.2 5.1h-3.6-11l-44.9-0.3-1.2-4.6 5.7-0.1c0 0 23.1 0 23.1 0z"/>
                </g>
                <g id="&lt;Group&gt;">
                  <path id="&lt;Path&gt;" class="s62" d="m1249.8 281.1c0 0 9.1-3.5 6.5 4.4-1.4 3.7-2.6 2.6-2.7 2.5 0-0.1-4-1.9-4-1.9z"/>
                  <path id="&lt;Path&gt;" class="s63" d="m1245.6 281.5c0 0-3.4-7 3.4-6.2 6.9 0.9 3 6.1 1.8 6.7-1.3 0.6-5.2-0.5-5.2-0.5z"/>
                  <path id="&lt;Path&gt;" class="s64" d="m1248.3 284.7c0 0-3.1 9.6 6.1 9.6 9.2 0 4.5-9.2-2.4-11.1-2.1 0.8-3.7 1.5-3.7 1.5z"/>
                  <path id="&lt;Path&gt;" class="s65" d="m1242.4 285.3c0 0-3.8 6.3 1.7 8.6 5.5 2.3 6-5.2 3.6-8.6-2.5-3.3-5.3 0-5.3 0z"/>
                  <path id="&lt;Path&gt;" class="s66" d="m1238.2 282.3c-0.2-0.2-7.7 0-5.1 6.6 2.6 6.5 9.5 0.2 9.9-2.4 0.5-2.7-4.8-4.2-4.8-4.2z"/>
                  <path id="&lt;Path&gt;" class="s67" d="m1240.4 275.8c4.4-1.2 7.3 5 6.1 7.2-1.2 2.1-6.5 2.9-9.4-1.4-2.8-4.3 3.3-5.8 3.3-5.8z"/>
                  <path id="&lt;Path&gt;" class="s52" d="m1253.4 285.2c0 3-3.8 2.2-7.6 2.2-3.8 0-6.2 0.8-6.2-2.2 0-3 3.3-3.6 6.9-4.9 3.5-1.4 6.9 1.9 6.9 4.9z"/>
                  <path id="&lt;Path&gt;" class="s53" d="m1251.9 284.2c0 0.8-1.2 0.1-3.7 0.1-2.4 0-5.1 0.7-5.1-0.1 0-0.8 2.6-2.2 5.1-2.2 2.4 0 3.7 1.4 3.7 2.2z"/>
                </g>
              </g>
              <path id="&lt;Path&gt;" class="s68" d="m1255.3 303.2l-1.4 4-6.3 17.7c-0.8 2.2-2.9 3.7-5.3 3.7h-15.2c5.7-1.4 10.5-5.2 13.2-10.4q0.3-0.7 0.6-1.4 0.1-0.2 0.1-0.3 0.3-0.7 0.5-1.3 0.3-0.9 0.5-1.7l0.2-1.1q0-0.1 0.1-0.2l0.2-1c0 0 1-4.6 1-4.6l-39.8-2.1-0.5-1.6 41.1 0.3z"/>
            </g>
          </g>
          <g id="&lt;Group&gt;">
            <g id="&lt;Group&gt;">
              <g id="&lt;Group&gt;">
                <path id="&lt;Path&gt;" class="s69" d="m1279.6 643.6h-595.7c3.3-11.3 6-22.5 8.1-33.4 9.6-48.4 8.2-96.9 8.2-96.9 2.5 0.2 42.4 4.1 105.2 8.1 97.1 6 249 12.1 401.3 4.2 24.3-1.3 48.7-2.9 72.9-5 0.1 0.6 11.5 42 0 123z"/>
                <path id="&lt;Path&gt;" class="s70" d="m1279.6 520.6c-87 7.4-176.7 9.3-258.7 8.6-177-1.6-318.5-15.7-320.6-15.9-0.5 0-14 1.7-49.9 1.4-24.7-0.2-4.4-1.4-53.3-4.8-60.6-4.1-97.2-8.9-117.4-12.3l-21.2-4.2 108.3-5.3 384.5-4.2 154.6-1.8c0 0 78.6 13.7 173.7 38.5z"/>
                <path id="&lt;Path&gt;" class="s71" d="m1279.6 658.1c0 0-129 1-290.4 1.7q-11.2 0.1-22.5 0.1c-106.5 0.5-180.7 0.9-284.5 0.9h-1.7c0 0 3.1-7.5 3.4-17.2h595.7c7.6 9.7 0 14.5 0 14.5z"/>
                <g id="&lt;Group&gt;">
                  <path id="&lt;Path&gt;" class="s72" d="m470.2 690.7h-11.5l6.8-32.6h23z"/>
                  <path id="&lt;Path&gt;" class="s73" d="m654.9 660.8l-16.8 29.9h-11.6l6.3-30q10.9 0.1 22.1 0.1z"/>
                </g>
                <g id="&lt;Group&gt;">
                  <path id="&lt;Path&gt;" class="s72" d="m989.2 659.8l-17.4 30.9h-11.6l6.5-30.8q11.3 0 22.5-0.1z"/>
                  <path id="&lt;Path&gt;" class="s73" d="m1245.7 690.7h-11.5l6.8-32.3 23-0.2z"/>
                </g>
                <path id="&lt;Path&gt;" class="s74" d="m566.8 496.7c-37.9 0-71.1-1.4-90.4-2.3-10.4-0.6-16.8-1-17.8-1h-0.1c-14.8-34-28-97.1-18.2-186.6 13.7-11.5 30.3-19.7 44.4-25.3 17-6.8 30.4-9.6 30.4-9.6 0 0 10.2 117.3 34.7 188.2 5 14.7 10.7 27.3 17 36.6z"/>
                <path id="&lt;Path&gt;" class="s75" d="m1105.9 482.1q-27.4 0.8-52.9 1.5c-33.3 0.9-64.3 1.8-93.3 2.6-354.1 9.7-392.9 10.5-392.9 10.5-6.3-9.3-12-21.9-17-36.6-24.5-70.9-34.7-188.2-34.7-188.2l192.5 1.3 324.1 2.2 4.5 12.4z"/>
                <path id="&lt;Path&gt;" class="s76" d="m683.9 643.6c-0.2 6.2-1.5 11.5-2.5 14.5-0.5 1.7-0.9 2.7-0.9 2.7q-12.9 0-25.6 0-11.2 0-22.1-0.1c-127.4-0.5-167.4-2.6-174.3-2.6-8.7-10.1 0-23.1 0-23.1l6.8 0.3z"/>
              </g>
              <path id="&lt;Path&gt;" class="s74" d="m698.1 566.7c-1 11.6-2.6 24.3-4.9 37.2q-0.6 3.2-1.2 6.3c-2.1 10.9-4.8 22.1-8.1 33.4l-33.6-1.3-191.8-7.3c-4.7-20.4-6.3-43-6.3-64 0-18.5 1.2-35.8 2.6-49.3 1-10 2.1-18 2.8-22.9 0.5-3.4 0.9-5.4 0.9-5.4 0 0 1.7 0.1 4.9 0.5 30.1 3.2 189.5 19.9 236.8 19.4 0 0 0.7 23.1-2.1 53.4z"/>
            </g>
            <path id="&lt;Path&gt;" class="s77" d="m1279.6 520.6c-87 7.4-176.7 9.3-258.7 8.6 0.5-20.8-33.6-35-61.2-43 43.8-1.2 92.3-2.6 146.2-4.1 0 0 78.6 13.7 173.7 38.5z"/>
            <path id="&lt;Path&gt;" class="s77" d="m1053 483.6c77.7-89.5-210-175.9-345.4-210.4l324.1 2.2 74.2 206.7q-27.4 0.8-52.9 1.5z"/>
            <path id="&lt;Path&gt;" class="s72" d="m632.3 663.3l13.2 0.9-13.2 26.5h5.8l16.8-29.9-22.1-0.1z"/>
            <path id="&lt;Path&gt;" class="s72" d="m1240.3 661.7l14 1.5-14 27.5h5.4l18.3-32.5-23 0.2z"/>
            <path id="&lt;Path&gt;" class="s78" d="m1105.9 482.1l-536.7 19.9-110.6-8.6c2.9 0.2 50 3.3 108.2 3.3 0 0 49-1 539.1-14.6z"/>
            <path id="&lt;Path&gt;" class="s79" d="m566.8 496.7c-37.9 0-71.1-1.4-90.4-2.3-8.1-77.1 2.2-169.3 8.3-212.9 17-6.8 30.4-9.6 30.4-9.6 0 0 10.2 117.3 34.7 188.2 5 14.7 10.7 27.3 17 36.6z"/>
            <path id="&lt;Path&gt;" class="s80" d="m698.1 566.7c-1 11.6-2.6 24.3-4.9 37.2l-12.7-52.1-225.7-30.1c1-10 2.1-18 2.8-22.9 0.5-3.4 0.9-5.4 0.9-5.4 0 0 1.7 0.1 4.9 0.5 30.1 3.2 189.5 19.9 236.8 19.4 0 0 0.7 23.1-2.1 53.4z"/>
            <path id="&lt;Path&gt;" class="s81" d="m1279.6 643.6h-595.7c3.3-11.3 6-22.5 8.1-33.4l453.9-12.6c37.7-1.1 66.1-34.7 60.8-72 24.3-1.3 48.7-2.9 72.9-5 0.1 0.6 11.5 42 0 123z"/>
            <path id="&lt;Path&gt;" class="s82" d="m673.6 284.8c-78.3-0.6-137.9 70.2-123.8 147.2 5.6 31.2 11.7 57 17 64.7-6.3-9.3-12-21.9-17-36.6-24.5-70.9-34.7-188.2-34.7-188.2l192.5 1.3 324.1 2.2 4.5 12.4z"/>
            <path id="&lt;Path&gt;" class="s83" d="m681.4 658.1c-0.5 1.7-0.9 2.7-0.9 2.7q-12.9 0-25.6 0-11.2 0-22.1-0.1c-127.4-0.5-167.4-2.6-174.3-2.6-8.7-10.1 0-23.1 0-23.1l6.8 0.3c-0.9 5.1-2.3 14.6-0.8 16.9 16.3 3.2 216.9 5.9 216.9 5.9z"/>
            <path id="&lt;Path&gt;" class="s84" d="m849.7 643.6c0 0-158.5 2.2-162.1 1.7-0.1 4.8-5.4 15.5-5.4 15.5h-1.7c0 0 3.1-7.5 3.4-17.2z"/>
          </g>
          <g id="&lt;Group&gt;" style="opacity: .5">
            <g id="&lt;Group&gt;">
              <g id="&lt;Group&gt;">
                <g id="&lt;Group&gt;"/>
                <g id="&lt;Group&gt;"/>
              </g>
            </g>
            <path id="&lt;Path&gt;" class="s88" d="m697.2 739.5q0.3 0.8 0.5 1.7h-12.4l7.9-13.7q0.4 1 0.8 2 0.4 1 0.8 2 0.3 1 0.7 2 0.3 1 0.6 2 0.3 0.9 0.5 1.7 0.1 0.3 0.1 0.5 0.3 0.9 0.5 1.8z"/>
          </g>
          <path id="&lt;Path&gt;" class="s15" d="m697.7 741.4q0-0.1 0-0.2 0 0.1 0 0.2z"/>
          <g id="&lt;Group&gt;">
            <path id="&lt;Path&gt;" class="s28" d="m1000.6 129.3l-14.5-22.7-2 22.7 3.6-40.5-1.8-1.6-35.3 3.1-5 39h-18.5c0.4 0 0.8-0.3 0.8-0.8v-0.3h1.3v-8.2h-1.3v-0.3c0-0.3-0.2-0.6-0.5-0.7 1.3-0.2 2.2-1.3 2.2-2.6v-3.6c0-1.5-1.1-2.6-2.5-2.6h-61.9v1.6h-0.4v5.6h0.4v1.6h2.1q-0.2 0.2-0.2 0.4v9.4c0 0.3 0.2 0.5 0.5 0.5h47.8-85.3l1.4 5.9 0.7 2.7h20l18.6 17.8h11.2v-17.8h79.1l18.6 17.8h11.3v-17.8h3.6 31.1l2-8.6z"/>
            <g id="&lt;Group&gt;">
              <g id="&lt;Group&gt;">
                <g id="&lt;Group&gt;">
                  <g id="&lt;Group&gt;">
                    <g id="&lt;Group&gt;">
                      <path id="&lt;Path&gt;" class="s89" d="m990.3 135.2h-162.4l-2.1-8.6h166.9z"/>
                    </g>
                    <g id="&lt;Group&gt;">
                      <path id="&lt;Path&gt;" class="s90" d="m1021.4 135.2h-31.1l1.5-8.6h31.6z"/>
                    </g>
                  </g>
                  <g id="&lt;Group&gt;">
                    <g id="&lt;Group&gt;">
                      <path id="&lt;Path&gt;" class="s91" d="m859.2 135.2l18.6 17.8h-11.3l-18.6-17.8z"/>
                    </g>
                    <g id="&lt;Group&gt;">
                      <path id="&lt;Path&gt;" class="s92" d="m877.8 153v-17.8h-18.6z"/>
                    </g>
                  </g>
                  <g id="&lt;Group&gt;">
                    <g id="&lt;Group&gt;">
                      <path id="&lt;Path&gt;" class="s91" d="m968.1 135.2l18.6 17.8h-11.2l-18.6-17.8z"/>
                    </g>
                    <g id="&lt;Group&gt;">
                      <path id="&lt;Path&gt;" class="s92" d="m986.7 153v-17.8h-18.6z"/>
                    </g>
                  </g>
                </g>
                <g id="&lt;Group&gt;">
                  <g id="&lt;Group&gt;">
                    <path id="&lt;Path&gt;" class="s93" d="m976.8 126.6h-35.4l5-39 35.2-3.1z"/>
                  </g>
                  <path id="&lt;Path&gt;" class="s15" d="m948.4 120.5l3.5-27.2 22.7-2-3.3 29.2z"/>
                  <g id="&lt;Group&gt;">
                    <path id="&lt;Path&gt;" class="s94" d="m981.6 84.5l1.8 1.6-3.6 40.5h-3z"/>
                  </g>
                  <g id="&lt;Group&gt;">
                    <path id="&lt;Path&gt;" class="s93" d="m981.9 103.9l14.4 22.7h-16.5z"/>
                  </g>
                </g>
                <g id="&lt;Group&gt;">
                  <g id="&lt;Group&gt;">
                    <g id="&lt;Group&gt;">
                      <g id="&lt;Group&gt;">
                        <g id="&lt;Group&gt;">
                          <path id="&lt;Path&gt;" class="s40" d="m861 107.5h61.8c1.4 0 2.6 1.1 2.6 2.6v3.6c0 1.5-1.2 2.6-2.6 2.6h-61.8z"/>
                        </g>
                        <path id="&lt;Path&gt;" class="s15" d="m889.3 114.7h-28.8v-5.6h28.8c0.8 0 1.4 0.6 1.4 1.4v2.8c0 0.8-0.6 1.4-1.4 1.4z"/>
                      </g>
                      <g id="&lt;Group&gt;">
                        <path id="&lt;Path&gt;" class="s95" d="m896.3 113.1h24.5c0.7 0 1.3-0.6 1.3-1.4 0-0.7-0.6-1.3-1.3-1.3h-24.5c-0.7 0-1.3 0.6-1.3 1.3 0 0.8 0.6 1.4 1.3 1.4z"/>
                      </g>
                    </g>
                    <g id="&lt;Group&gt;">
                      <path id="&lt;Path&gt;" class="s96" d="m911.1 126.6h11.7c0.5 0 0.8-0.3 0.8-0.8v-8.8c0-0.4-0.3-0.8-0.8-0.8h-11.7z"/>
                      <g id="&lt;Group&gt;">
                        <path id="&lt;Path&gt;" class="s96" d="m912.2 116.7v9.4c0 0.3-0.2 0.5-0.5 0.5h-48.4c-0.2 0-0.4-0.2-0.4-0.5v-9.4c0-0.3 0.2-0.5 0.4-0.5h48.4c0.3 0 0.5 0.2 0.5 0.5z"/>
                        <g id="&lt;Group&gt;">
                          <path id="&lt;Path&gt;" class="s97" d="m881.3 120.3v-1.1h12.5v1.1z"/>
                          <g id="&lt;Group&gt;">
                            <g id="&lt;Group&gt;">
                              <path id="&lt;Path&gt;" class="s97" d="m875.3 123.7v-1.2h24.4v1.2z"/>
                            </g>
                          </g>
                        </g>
                      </g>
                      <path id="&lt;Path&gt;" class="s15" d="m924.9 125.5h-11.2c-0.6 0-1.1-0.4-1.1-1v-6.2c0-0.5 0.5-1 1.1-1h11.2z"/>
                    </g>
                  </g>
                </g>
              </g>
              <path id="&lt;Path&gt;" class="s98" d="m827.2 132.5l163.9-1.6-0.8 4.3h-162.4z"/>
            </g>
          </g>
        </g>
      </g>
      <g id="&lt;Group&gt;">
        <path id="&lt;Path&gt;" class="s99" d="m393.2 568.7l-194 24.2c-6.3 0.7-12.1-3.7-12.8-10.1l-48.3-387.7c-0.8-6.3 3.7-12.1 10-12.8l193.9-24.2c6.4-0.8 12.1 3.7 12.9 10l48.3 387.7c0.8 6.3-3.7 12.1-10 12.9z"/>
        <path id="&lt;Path&gt;" class="s100" d="m122.8 469l14.2-26.6c0 0 25.3 11.6 26.2 12.4 0.9 0.7 6.8 6.7 7.3 9.9 0.5 3.1-8.5 10.7-10.8 11.8-2.2 1.1-36.9-7.5-36.9-7.5z"/>
        <path id="&lt;Path&gt;" class="s100" d="m147.4 542l13.6-13.6 2.7 21.5z"/>
        <path id="&lt;Path&gt;" class="s101" d="m211.2 348l-43.8 28.9-64.6-109.6c-5.4-9-3.7-20.6 4-27.6 9.8-8.9 25-7.3 32.7 3.4z"/>
        <path id="&lt;Path&gt;" class="s101" d="m480.7 606.2q-0.4 1.1-0.8 2.2c-15.5 45.6-54.6 75.9-98.8 83.1-53.9 5-138.4-66.5-171.4-96.7q-1.9-1.7-3.5-3.2c-6.6-6.1-10.4-9.8-10.4-9.8 0 0-7.5 1.4-17.6 3.7q-0.8-0.8-1.5-1.7c94.2-77.7 165.2-20.6 165.2-20.6 0 0 3.6-26.2 34.1-112.6l50.6-7.9c0 0 18.2 27.8 51.2 106.2 7.7 18.1 8.9 38.5 2.9 57.3z"/>
        <path id="&lt;Path&gt;" class="s96" d="m374.9 571l-21.5 2.7-146.7 18.2h-0.2l-25.5 3.2c-6.3 0.8-12.1-3.7-12.9-10l-48.3-387.7c-0.8-6.3 3.7-12.1 10-12.9l194-24.1c6.3-0.8 12.1 3.7 12.8 10l48.3 387.7c0.8 6.3-3.7 12.1-10 12.9z"/>
        <path id="&lt;Path&gt;" class="s15" d="m169.3 555.4l-43.7-350.7 207.2-25.8 43.7 350.7z"/>
        <path id="&lt;Path&gt;" class="s101" d="m208.4 591.7q-0.3 0.7-0.6 1.4-0.4 0.6-0.7 1.3c-4.4 7.4-12.6 11.4-20.9 10.4q-2.4-0.2-4.8-1.1l-18.3-6.6c-19.8-7.2-29.4-29.7-20.9-49 2.5-5.7 8.3-8.7 14.1-8.1 1.8 0.2 3.7 0.8 5.4 1.8l37.4 22.1c9.7 5.7 13.5 17.7 9.3 27.8z"/>
        <path id="&lt;Path&gt;" class="s99" d="m290.4 572l-48.5 6c-1.8 0.3-3.4-1-3.7-2.8l-1.8-14.8c-0.2-1.8 1.1-3.5 2.9-3.7l48.5-6c1.8-0.3 3.4 1 3.6 2.8l1.9 14.8c0.2 1.8-1.1 3.5-2.9 3.7z"/>
        <path id="&lt;Path&gt;" class="s99" d="m244 184l-49 6.1c-1.5 0.2-2.9-0.9-3-2.4-0.2-1.5 0.8-2.8 2.3-3l49.1-6.1c1.5-0.2 2.8 0.9 3 2.4 0.2 1.4-0.9 2.8-2.4 3z"/>
        <path id="&lt;Path&gt;" class="s99" d="m263.6 178.8c0.2 1.5-0.8 2.9-2.3 3-1.5 0.2-2.9-0.8-3.1-2.3-0.2-1.5 0.9-2.9 2.4-3.1 1.5-0.1 2.9 0.9 3 2.4z"/>
        <g id="&lt;Group&gt;">
          <g id="&lt;Group&gt;">
            <path id="&lt;Path&gt;" class="s96" d="m352.8 237.6c-2.4 0.3-4.7-1.5-5-3.9l-4.7-37.5c-0.3-2.5 1.5-4.7 4-5.1 2.4-0.3 4.7 1.5 5 4l4.6 37.5c0.4 2.4-1.4 4.7-3.9 5z"/>
          </g>
          <g id="&lt;Group&gt;">
            <path id="&lt;Path&gt;" class="s96" d="m360.2 296.6c-2.5 0.4-4.7-1.4-5-3.9l-4.7-37.5c-0.3-2.4 1.4-4.7 3.9-5 2.5-0.3 4.7 1.5 5 3.9l4.7 37.5c0.3 2.5-1.4 4.7-3.9 5z"/>
          </g>
        </g>
        <path id="&lt;Path&gt;" class="s100" d="m373 607c-24.1-5-29.9-14.9-29.9-14.9l-133.4 2.7q-1-0.9-1.9-1.7 0.3-0.7 0.6-1.4l145-18c2.1 6.5 4.9 13.2 8.4 19.8 3.1 5.6 6.9 10 11.2 13.5z"/>
        <g id="&lt;Group&gt;">
          <g id="&lt;Group&gt;">
            <g id="&lt;Group&gt;">
              <path id="&lt;Compound Path&gt;" fillrule="evenodd" class="s96" d="m163.4 344.9c-1.6 0-3.1-0.4-4.5-1.2-2.6-1.5-4.3-4.1-4.7-7l-4.6-37.3c-0.4-2.5 0.3-5 1.9-6.9 1.5-2 3.7-3.2 6.2-3.5l37.3-4.7c5.1-0.6 9.8 3 10.4 8.1l4.6 37.4c0.4 2.9-0.6 5.8-2.8 7.9-1.5 1.3-3.3 2.2-5.3 2.5l-37.3 4.6q-0.6 0.1-1.2 0.1zm32.7-59.8q-0.5 0-1 0.1l-37.3 4.6c-2.3 0.3-4.3 1.4-5.7 3.2-1.3 1.8-2 4-1.7 6.3l4.7 37.3c0.3 2.6 1.9 5 4.2 6.3 1.6 0.9 3.4 1.3 5.2 1l37.3-4.6c1.8-0.2 3.5-1 4.8-2.3 2-1.8 2.9-4.4 2.6-7.1l-4.7-37.4c-0.5-4.2-4.2-7.4-8.4-7.4z"/>
              <path id="&lt;Path&gt;" class="s96" d="m195.6 308.4c1.1 9-5.3 17.2-14.3 18.3-9 1.1-17.2-5.3-18.3-14.3-1.2-9 5.2-17.2 14.3-18.3 9-1.1 17.2 5.3 18.3 14.3z"/>
              <path id="&lt;Path&gt;" class="s96" d="m206.9 337.3c-1.3 1.3-3.1 2.2-5 2.4l-37.4 4.7c-1.9 0.2-3.8-0.2-5.4-1.1 3.8-7.6 12.2-13.4 22.4-14.7 10.3-1.3 19.8 2.3 25.4 8.7z"/>
            </g>
            <g id="&lt;Group&gt;">
              <path id="&lt;Path&gt;" class="s96" d="m334.6 278.2l-105.6 13.1-0.6-5.3 105.5-13.1z"/>
              <path id="&lt;Path&gt;" class="s96" d="m337 297.7l-105.5 13.1-0.7-5.2 105.6-13.1z"/>
              <path id="&lt;Path&gt;" class="s96" d="m264.6 326.5l-30.7 3.8-0.7-5.2 30.7-3.8z"/>
            </g>
          </g>
          <g id="&lt;Group&gt;">
            <g id="&lt;Group&gt;">
              <path id="&lt;Compound Path&gt;" fillrule="evenodd" class="s96" d="m174.6 435.3c-1.6 0-3.1-0.4-4.5-1.2-2.6-1.5-4.3-4.1-4.7-7l-4.6-37.3c-0.3-2.5 0.3-5 1.9-6.9 1.5-2 3.7-3.2 6.2-3.5l37.3-4.7c2.5-0.3 4.9 0.4 6.9 1.9 2 1.5 3.2 3.7 3.5 6.2l4.6 37.4c0.4 2.9-0.6 5.8-2.8 7.9-1.4 1.3-3.3 2.2-5.3 2.5l-37.3 4.6q-0.6 0.1-1.2 0.1zm32.8-59.8q-0.5 0-1.1 0.1l-37.3 4.6c-2.2 0.3-4.2 1.4-5.6 3.2-1.4 1.8-2 4-1.8 6.2l4.7 37.4c0.3 2.6 1.9 5 4.2 6.3 1.6 0.9 3.4 1.3 5.2 1l37.3-4.6c1.9-0.2 3.5-1 4.8-2.3 2-1.8 2.9-4.5 2.6-7.1l-4.7-37.4c-0.2-2.2-1.4-4.2-3.1-5.6-1.5-1.2-3.3-1.8-5.2-1.8z"/>
              <path id="&lt;Path&gt;" class="s96" d="m206.8 398.8c1.1 9-5.3 17.2-14.3 18.3-9 1.1-17.2-5.3-18.3-14.3-1.1-9 5.3-17.2 14.3-18.3 9-1.1 17.2 5.3 18.3 14.3z"/>
              <path id="&lt;Path&gt;" class="s96" d="m218.1 427.7c-1.3 1.3-3 2.2-5 2.4l-37.3 4.7c-2 0.2-3.9-0.2-5.5-1.1 3.9-7.6 12.2-13.4 22.5-14.7 10.2-1.3 19.7 2.3 25.3 8.7z"/>
            </g>
            <g id="&lt;Group&gt;">
              <path id="&lt;Path&gt;" class="s96" d="m345.8 368.6l-105.5 13.1-0.7-5.3 105.6-13.1z"/>
              <path id="&lt;Path&gt;" class="s96" d="m348.2 388.1l-105.5 13.1-0.7-5.3 105.6-13.1z"/>
              <path id="&lt;Path&gt;" class="s96" d="m309.6 412.7l-64.5 8-0.6-5.2 64.4-8z"/>
            </g>
          </g>
          <g id="&lt;Group&gt;">
            <g id="&lt;Group&gt;">
              <path id="&lt;Compound Path&gt;" fillrule="evenodd" class="s96" d="m185.9 525.7c-1.6 0-3.2-0.5-4.6-1.2-2.6-1.5-4.3-4.1-4.7-7l-4.6-37.4c-0.6-5.1 3-9.7 8.1-10.4l37.3-4.6c2.5-0.3 5 0.4 6.9 1.9 2 1.5 3.2 3.7 3.5 6.2l4.7 37.3c0.3 3-0.7 5.9-2.9 8-1.4 1.3-3.2 2.2-5.2 2.4l-37.4 4.7q-0.6 0.1-1.1 0.1zm32.7-59.8q-0.5 0-1.1 0.1l-37.3 4.6c-4.6 0.6-7.9 4.8-7.3 9.4l4.6 37.4c0.3 2.6 1.9 5 4.2 6.3 1.6 0.9 3.4 1.2 5.2 1l37.4-4.6c1.8-0.2 3.4-1 4.7-2.3 2-1.8 2.9-4.5 2.6-7.1l-4.6-37.4c-0.3-2.2-1.4-4.2-3.2-5.6-1.5-1.2-3.3-1.8-5.2-1.8z"/>
              <path id="&lt;Path&gt;" class="s96" d="m218 489.2c1.2 9-5.2 17.2-14.3 18.3-9 1.1-17.2-5.3-18.3-14.3-1.1-9 5.3-17.2 14.3-18.3 9-1.1 17.2 5.3 18.3 14.3z"/>
              <path id="&lt;Path&gt;" class="s96" d="m229.3 518.1c-1.3 1.3-3 2.2-5 2.4l-37.3 4.6c-2 0.3-3.9-0.1-5.5-1 3.9-7.6 12.2-13.4 22.5-14.7 10.2-1.3 19.7 2.3 25.3 8.7z"/>
            </g>
            <g id="&lt;Group&gt;">
              <path id="&lt;Path&gt;" class="s96" d="m357 459l-105.5 13.1-0.7-5.3 105.6-13.1z"/>
              <path id="&lt;Path&gt;" class="s96" d="m359.5 478.5l-105.6 13.1-0.6-5.3 105.5-13.1z"/>
              <path id="&lt;Path&gt;" class="s96" d="m347 499.9l-90.7 11.2-0.6-5.2 90.7-11.3z"/>
            </g>
          </g>
        </g>
        <path id="&lt;Path&gt;" class="s101" d="m405.7 616.5c-12.1 0.5-23.6-2.2-32.7-9.5-4.3-3.5-8.1-7.9-11.2-13.5-10.2-18.9-13.7-38.2-13.9-55-0.1-6.4 0.3-12.4 0.9-17.9 2.2-19.2 7.6-32.1 7.6-32.1l5.1-75.9-25.7-47.7c-15.2-29.1-12.7-47.1-7.7-57.2 3.2-6.6 12-7.9 17.1-2.7l40.4 41c16.1 16.3 28.2 36.1 35.4 57.8l20.7 61.9c0 0 10.5 24.1 23.7 54.7 19 44-11.7 94.1-59.7 96.1z"/>
        <path id="&lt;Path&gt;" class="s101" d="m178.6 534.1l-36.8-15.2c-21.1-8.8-29.2-34.5-16.8-53.7 4.7-7.4 14.5-9.4 21.8-4.5l49.1 30.5c10.4 7 14.4 20.3 9.6 31.8-4.3 10.5-16.4 15.5-26.9 11.1z"/>
        <path id="&lt;Path&gt;" class="s101" d="m157.7 469.6l-23.6-17.5c-18.3-13.7-19.8-40.6-3.1-56.2 6.4-6 16.4-5.6 22.3 0.9l31.7 35.4c8.3 9.3 8.9 23.2 1.5 33.2-6.8 9.1-19.7 11-28.8 4.2z"/>
        <g id="&lt;Group&gt;">
          <path id="&lt;Compound Path&gt;" fillrule="evenodd" class="s96" d="m236.8 206c13.3 6 19.9 20.7 16.1 34.4l36.1 16.3c2.3 1 3.3 3.7 2.2 6-1 2.3-3.7 3.3-6 2.2l-36-16.3c-7.8 11.9-23.2 16.7-36.5 10.6-14.7-6.6-21.2-24-14.6-38.7 6.7-14.7 24-21.2 38.7-14.5zm-1.8 3.9c-12.5-5.6-27.2-0.1-32.9 12.4-5.7 12.6-0.1 27.3 12.4 33 12.5 5.6 27.3 0.1 32.9-12.4 5.7-12.6 0.1-27.3-12.4-33z"/>
        </g>
      </g>
      <g id="&lt;Group&gt;">
        <path id="&lt;Path&gt;" class="s28" d="m690.7 214.5h-0.9-7.1v-40.5l-66.4-4.9-2.1 0.7 1.6 12.4-4.7 11.5v-31.9l-24.4-3.4h-1.1l-19.1-3.7h-12.7v59.8h-30l2.1 8.6h20l18.6 17.8h11.3v-17.8h79.1l18.6 17.8h11.2v-17.8h3.6 31.1l2-8.6z"/>
        <g id="&lt;Group&gt;">
          <g id="&lt;Group&gt;">
            <g id="&lt;Group&gt;">
              <g id="&lt;Group&gt;">
                <g id="&lt;Group&gt;">
                  <path id="&lt;Path&gt;" class="s102" d="m684.2 219.4h-162.4l-2.2-8.6h167z"/>
                </g>
                <g id="&lt;Group&gt;">
                  <path id="&lt;Path&gt;" class="s90" d="m715.2 219.4h-31l1.4-8.6h31.7z"/>
                </g>
              </g>
              <g id="&lt;Group&gt;">
                <g id="&lt;Group&gt;">
                  <path id="&lt;Path&gt;" class="s91" d="m553 219.4l18.6 17.8h-11.2l-18.6-17.8z"/>
                </g>
                <g id="&lt;Group&gt;">
                  <path id="&lt;Path&gt;" class="s92" d="m571.6 237.2v-17.8h-18.6z"/>
                </g>
              </g>
              <g id="&lt;Group&gt;">
                <g id="&lt;Group&gt;">
                  <path id="&lt;Path&gt;" class="s91" d="m662 219.4l18.6 17.8h-11.3l-18.6-17.8z"/>
                </g>
                <g id="&lt;Group&gt;">
                  <path id="&lt;Path&gt;" class="s92" d="m680.6 237.2v-17.8h-18.6z"/>
                </g>
              </g>
            </g>
            <g id="&lt;Group&gt;">
              <g id="&lt;Group&gt;">
                <g id="&lt;Group&gt;">
                  <g id="&lt;Group&gt;">
                    <path id="&lt;Path&gt;" class="s103" d="m562.3 151h-12.6v59.8h12.6z"/>
                  </g>
                  <g id="&lt;Group&gt;">
                    <g id="&lt;Group&gt;">
                      <path id="&lt;Path&gt;" class="s104" d="m554.7 188.5h-1.4v-15.1h1.4z"/>
                    </g>
                    <g id="&lt;Group&gt;">
                      <g id="&lt;Group&gt;">
                        <path id="&lt;Path&gt;" class="s104" d="m558.7 195.8h-1.3v-29.7h1.3z"/>
                      </g>
                    </g>
                  </g>
                </g>
                <g id="&lt;Group&gt;">
                  <path id="&lt;Path&gt;" class="s104" d="m562.3 151l25.8 4.9v54.9h-25.8z"/>
                </g>
              </g>
              <g id="&lt;Group&gt;">
                <g id="&lt;Group&gt;">
                  <g id="&lt;Group&gt;">
                    <g id="&lt;Group&gt;">
                      <g id="&lt;Group&gt;">
                        <path id="&lt;Path&gt;" class="s105" d="m582.6 154.7h-6.9v56.1h6.9z"/>
                      </g>
                    </g>
                  </g>
                  <g id="&lt;Group&gt;">
                    <g id="&lt;Group&gt;">
                      <path id="&lt;Path&gt;" class="s40" d="m581.4 158.5h-4.7v-0.9h4.7z"/>
                    </g>
                    <g id="&lt;Group&gt;">
                      <path id="&lt;Path&gt;" class="s40" d="m581.4 161.4h-4.7v-0.8h4.7z"/>
                    </g>
                  </g>
                </g>
                <g id="&lt;Group&gt;">
                  <path id="&lt;Path&gt;" class="s40" d="m582.6 154.7l24.3 3.4v52.7h-24.3z"/>
                </g>
              </g>
              <g id="&lt;Group&gt;">
                <g id="&lt;Group&gt;">
                  <path id="&lt;Path&gt;" class="s94" d="m678.5 210.8h-60.1l-6.2-45.4 66.3 4.9z"/>
                </g>
                <path id="&lt;Path&gt;" class="s15" d="m623.3 205.2l-4.6-33.6 54.2 3.9v29.7z"/>
                <g id="&lt;Group&gt;">
                  <path id="&lt;Path&gt;" class="s93" d="m612.2 165.4l-2.1 0.7 5.5 44.7h2.8z"/>
                </g>
                <g id="&lt;Group&gt;">
                  <path id="&lt;Path&gt;" class="s93" d="m611.6 178.5l-13.3 32.3h17.3z"/>
                </g>
              </g>
            </g>
          </g>
          <g id="&lt;Group&gt;" style="opacity: .3">
            <path id="&lt;Path&gt;" class="s92" d="m519.6 210.8l4.5 4.3h160.8l-0.7 4.3h-162.4z"/>
          </g>
        </g>
      </g>
      <g id="&lt;Group&gt;">
        <g id="&lt;Group&gt;">
          <g id="&lt;Group&gt;">
            <g id="&lt;Group&gt;">
              <g id="&lt;Group&gt;">
                <g id="&lt;Group&gt;">
                  <path id="&lt;Path&gt;" class="s104" d="m918 215.6l-86.1-2.5-9.6-103.6 97.4-4.3z"/>
                </g>
                <path id="&lt;Path&gt;" class="s15" d="m910.2 208.1l-38-1.2-31.1-0.9h-1.6l-3.5-35.4-3.7-38.2-1.6-16 9.1-0.1 21.8-0.1 21.8-0.2 25.9-0.2 0.1 11.8z"/>
              </g>
            </g>
            <g id="&lt;Group&gt;">
              <path id="&lt;Path&gt;" class="s103" d="m919.7 105.2h4.6l-2.3 110.5-4-0.1z"/>
            </g>
          </g>
          <g id="&lt;Group&gt;" style="opacity: .5">
            <path id="&lt;Path&gt;" class="s106" d="m861.6 116.2l-25.6 54.4-3.7-38.2 7.5-16.1z"/>
            <path id="&lt;Path&gt;" class="s106" d="m909.4 127.6l-37.2 79.3-31.1-0.9 42.3-90 25.9-0.2z"/>
          </g>
        </g>
      </g>
      <g id="&lt;Group&gt;">
        <g id="&lt;Group&gt;">
          <g id="&lt;Group&gt;">
            <path id="&lt;Path&gt;" class="s107" d="m1094.5 347.9c-6.6 2.6-12.5 3.4-13 3.4-1.8 0-27.2-0.7-29.6-1.4-2.4-0.6-54.9-5.1-54.9-5.1 0 0-15.2-19.1-17.1-38.5-0.4-4-0.2-8.1 0.8-12 6.2-23.7 27.1-30.4 16.3-80.3-3.4-15.9-4-27.9-2.6-37 5.8-40.5 49.5-22.2 49.5-22.2 42.8-5.5 33.2 63.5 50.3 120.1 3.3 11 7.7 21.7 13.7 31.1 15.9 25.1-0.3 36.8-13.4 41.9z"/>
            <path id="&lt;Path&gt;" class="s108" d="m1092.5 347.5c-2.4 6.8-4.6 11.1-4.7 11.3-1.2 3-2.5 5.9-3.9 8.7-1.3 2.5-2.6 5-4 7.6-3.7 7-7.7 14.5-10.8 24.4q-1.4 4.5-1.9 8.6c-0.6 4.1-0.6 7.9-0.2 11.5q0.1 1.6 0.4 3.1c0.6 3.8 1.6 7.1 2.7 10 2.7 7 6.1 11.1 6.1 11.1l-98.8-6.8c5.9-6.6 10.1-13.2 13.1-19.6 7.8-16.9 6.7-32.3 4.8-42.3q-0.6-2.9-1.1-5.1c-0.6-2.1-1-3.8-1.3-5-0.3-1-0.4-1.5-0.4-1.5 0 0-2-7.8-3.4-18.9q-0.1-1-0.2-2-0.2-2.4-0.2-4.8 0-1.9 0.1-3.8 0.9-1 1.8-2 2.6-2.8 4.9-5.7 2-2.3 3.9-4.7 0.6-0.7 1.2-1.5 1.2-1.6 2.4-3.2 1.2-1.6 2.3-3.1c2.7-3.7 5.2-7.4 7.5-11q0.3-0.6 0.7-1.2 1-1.4 1.8-2.9 1.4-2.1 2.6-4.1 0.8-1.3 1.5-2.6 0.4-0.7 0.8-1.3 0.7-1.2 1.4-2.4 0.3-0.6 0.6-1.2 0.1-0.2 0.3-0.5 1.2-2.3 2.3-4.2 0.4-0.8 0.8-1.5 0.1-0.2 0.2-0.4 0.2-0.3 0.3-0.7 0.1-0.2 0.2-0.3 0.2-0.3 0.3-0.7 0.1-0.1 0.2-0.3 0-0.1 0.1-0.2 0.4-0.8 0.7-1.4 0.2-0.3 0.3-0.5 0.2-0.5 0.4-0.9 0.2-0.5 0.4-0.8 0-0.1 0.1-0.1 0-0.2 0.1-0.3 0.1-0.2 0.2-0.3 0-0.1 0-0.2c0.1 0 28.8 0 28.8 0q0 0 0.4 0.1 0.5 0.2 1.4 0.7c1.2 0.6 3.1 1.4 5.4 2.7 5.8 3 14.7 8.1 25.6 15.8q0.2 0 0.4-0.1 2.1 1.6 4.4 3.3c6.7 17.7 1.6 38.6-3 51.2z"/>
            <path id="&lt;Path&gt;" class="s100" d="m843.4 460.5l-7.9 13c-0.2 0.3-0.1 0.7 0.2 1l-0.7 1.8c-0.2 0.3 0 0.7 0.3 0.9 0.1 0 0.2 0 0.3-0.1 1-0.8 6.7-5.8 6.9-5.9 0.2-0.2 2.9-3.8 3.5-4.4 0.6-0.7 1.5-1.9 1.7-2.4 0.2-0.5 0.3-1.1 0.3-1.5 0-0.5-4.6-2.4-4.6-2.4z"/>
            <path id="&lt;Path&gt;" class="s100" d="m837.5 472.9l-3.2 6.7c0 0.1 0 0.2 0.2 0.3 0.7 0.1 1.4-0.1 1.8-0.7l3.1-4.7z"/>
            <path id="&lt;Path&gt;" class="s101" d="m944.7 371.1c-0.3 2.9-1 5.8-2.2 8.7-11.5 29.6-62.6 62.5-76.2 70.9-2.2 1.4-3.4 2.1-3.4 2.1l-6.3-7.1 69.8-79.7c0 0 12.6-5.6 18.3 5.1z"/>
            <path id="&lt;Path&gt;" class="s101" d="m979.9 342.7q-0.2 1.8-0.2 3.3c0 3.1 0.5 5.6 1.4 7.8-22.3 16.9-44.8 28.8-47 30.2l-7.7-18 55.8-54.4c1.6 9.4 3.4 17.7 6.3 22.7q-4.1 4.4-8.6 8.4z"/>
            <path id="&lt;Path&gt;" class="s96" d="m1026.9 278.3q-0.1 0.1-0.1 0.2-0.1 0.2-0.2 0.3-0.1 0.4-0.3 0.7-0.1 0.1-0.2 0.3-0.1 0.4-0.3 0.7-0.1 0.2-0.2 0.4-0.4 0.7-0.8 1.5-1.1 1.9-2.3 4.2-0.2 0.3-0.3 0.5-0.3 0.6-0.6 1.2-0.7 1.2-1.4 2.4-0.4 0.6-0.8 1.3-0.7 1.3-1.5 2.6-1.2 2-2.6 4.1-0.8 1.5-1.8 2.9-0.4 0.6-0.7 1.2c-2.3 3.6-4.8 7.3-7.5 11q-1.1 1.5-2.3 3.1-1.2 1.6-2.4 3.2-0.6 0.8-1.2 1.5-1.9 2.4-3.9 4.7-2.3 2.9-4.9 5.7-0.9 1-1.8 2-0.2 0.1-0.3 0.3c-2.9-5-4.7-13.3-6.3-22.7q-0.4-2.3-0.8-4.8c5.7-5.9 10.9-10.8 15.4-14.8 4-3.4 7.4-6.1 10.6-8.3 3.4-2.2 6-3 7.9-3.3q0.9-0.2 1.5-0.2c1.5 0 2.1 0.3 2.1 0.3 0 0 3.6-1 8-2.2z"/>
            <path id="&lt;Path&gt;" class="s97" d="m1030.5 310c-0.1 6.3-0.4 11.3-1.3 12.9-3 5.1-11.5 12.7-14 14.4-2 1.5-20.1 4.3-26.3 5.3-1.2 0.1-2 0.3-2 0.3 0 0 0.7-1.9 1.8-5.1q0.8-2.5 1.9-5.8c1.1-3.5 2.4-7.7 3.7-12.2q0.6-2.1 1.2-4.4c2.5-9.6 7.2-18.4 13.6-25.7q0.5-0.5 1-1.1c2.6-2.9 5.6-5.7 8.8-8.1q1.6-1.2 3.1-2.2 0.9-0.6 1.8-1.2c3.3-2 5.3-3.3 5.3-3.3 0 0 1.5 21.6 1.4 36.2z"/>
            <path id="&lt;Path&gt;" class="s97" d="m1075.6 346.6c-0.2 4.7-2.5 9.2-6.5 12.1q-0.2 0.1-0.3 0.2c-4.4 3.1-10.1 3.7-15.1 1.7-38.8-15.6-60.6 4.2-60.8 4.4 0 0-6.6-2-10.4-8.4q-0.8-1.3-1.4-2.8-0.7-1.7-1.1-3.7-0.3-1.9-0.3-4.1 0-1.5 0.2-3.3 4.5-4 8.6-8.4 0.1-0.2 0.3-0.3c9.4-10.1 17.5-21.2 24-31.2 3.7-5.8 6.9-11.2 9.4-15.7q0.1-0.2 0.3-0.5 1.2-2.3 2.3-4.2 0.4-0.8 0.8-1.5 0.1-0.2 0.2-0.4 0.2-0.3 0.3-0.7 0.1-0.2 0.2-0.3 0.2-0.3 0.3-0.7 0.1-0.1 0.2-0.3 0-0.1 0.1-0.2 0.4-0.8 0.7-1.4 0.2-0.3 0.3-0.5 0.2-0.5 0.4-0.9 0.2-0.5 0.4-0.8 0-0.1 0.1-0.1 0-0.2 0.1-0.3 0.1-0.2 0.2-0.3 0-0.1 0-0.2c0.1 0 28.8 0 28.8 0 0 0 0.6 0.2 1.8 0.8-1 5.8-1.2 11.5-1.3 17-0.2 17.3 9.3 36.3 15.1 46.2 1.6 2.8 2.3 5.8 2.1 8.8z"/>
            <path id="&lt;Path&gt;" class="s109" d="m1020.4 465.3q-0.2 0.9-0.4 1.9-0.5 2-1.1 3.9-0.1 0.3-0.2 0.7-0.3 0.7-0.5 1.4l-3.2 1.3-7.9 3.4-9.2 4-23.4 9.9c-0.1-2.4 9.9-94.9 10.2-113.9 0.3-17.2-6.9-33.3-16.4-46.1q-0.2-0.3-0.5-0.6-1.1-1.6-2.3-3c0.3 0.2 18 12 23.6 32 2.8 10.1 3.6 21 7.5 33.6 1.5 5.1 3.6 10.4 6.4 16.1q0.6 1.2 1.3 2.4 0.4 0.8 0.9 1.7 0.6 1 1.2 2 0.2 0.3 0.4 0.7 0.2 0.3 0.4 0.6 0.2 0.4 0.4 0.7 0.4 0.6 0.8 1.3c0.1 0.1 0.2 0.2 0.2 0.3q0.3 0.5 0.7 1 0.2 0.3 0.4 0.6 0.2 0.4 0.4 0.7 0.2 0.3 0.5 0.6 0.4 0.7 0.8 1.2 0.4 0.6 0.8 1.2 0.2 0.3 0.3 0.5 0.2 0.3 0.4 0.6 0.2 0.3 0.3 0.6 0.2 0.3 0.4 0.6 0.2 0.3 0.4 0.5 0.1 0.3 0.3 0.6 1 1.8 1.8 3.5c4.9 10.4 6.5 22.1 4.3 33.5z"/>
            <g id="&lt;Group&gt;">
              <g id="&lt;Group&gt;">
                <path id="&lt;Path&gt;" class="s101" d="m1015.3 230.5c-3 0-6.1-2.8-7.5-7.1-1.7-5.3-0.2-10.8 3.4-12.4q0.2-0.1 0.4-0.1 0.4-0.1 0.8-0.2l1.3 10.7v0.1c0 0.1 0.4 3.4 0.4 3.4q0 0.1 0 0.2 0.4 2.8 1.2 5.4z"/>
                <path id="&lt;Path&gt;" class="s110" d="m1014.7 228.9c-4.8-2.3-6.1-5.7-6.4-8.1-0.3-3.6 1.2-6.8 3-8.1 0.1-0.1 0.2-0.1 0.3 0 0.1 0.1 0.1 0.3 0 0.3-1.7 1.3-3.2 4.4-2.8 7.7 0.2 2.4 1.4 5.6 6 7.8 0.1 0 0.1 0.1 0.1 0.2q-0.1 0.2-0.2 0.2z"/>
              </g>
              <g id="&lt;Group&gt;">
                <path id="&lt;Path&gt;" class="s101" d="m1072.5 213.8c-0.4 4.6-2.7 8.2-5.7 9.1q0.1-2.2-0.2-4.4l-0.5-4.8-0.1-0.2-0.2-1.8-1-8.8q0.3 0 0.6-0.1 0.5 0 0.9 0.1c3.8 0.4 6.5 5.3 6.2 10.9z"/>
                <path id="&lt;Path&gt;" class="s111" d="m1072.5 213.8c-0.4 4.6-2.7 8.2-5.7 9.1q0.1-2.2-0.2-4.4l-0.5-4.8-0.1-0.2-0.2-1.8-1-8.8q0.3 0 0.6-0.1 0.5 0 0.9 0.1c3.8 0.4 6.5 5.3 6.2 10.9z"/>
                <path id="&lt;Path&gt;" class="s110" d="m1066.6 221.2q-0.1 0-0.2-0.1c-0.1-0.1-0.1-0.2 0-0.3 3.2-2.8 4.6-6.2 4-9.6-0.6-3.2-2.7-5.5-4.5-6.2-0.1-0.1-0.1-0.2-0.1-0.3 0.1-0.1 0.2-0.2 0.3-0.1 1.9 0.7 4.1 3.2 4.7 6.5 0.6 3.6-0.8 7.1-4.1 10q-0.1 0.1-0.1 0.1z"/>
              </g>
            </g>
            <path id="&lt;Path&gt;" class="s101" d="m1066.8 222.9c-0.1 6.8-2.5 13.4-6.7 18.5q-0.6 0.7-1.2 1.4c-1.4 1.6-2.9 3.1-4.4 4.5q-0.2 0.3-0.4 0.5c-2.8 2.5-5.7 4.4-8.3 5q-0.9 0.2-1.8 0.1c-1.8-0.1-4-0.6-6.3-1.5q-1.8-0.7-3.6-1.6-1.1-0.5-2.2-1.1c-1.6-0.8-3.2-1.7-4.7-2.6-2.4-1.5-4.6-3.3-6.4-5.5-2.5-2.9-4.4-6.3-5.5-10.1q-0.8-2.6-1.2-5.4 0-0.1 0-0.2l-0.4-3.3c0-0.1 0-0.2 0-0.2l-1.3-10.7-0.8-6.9-0.3-2.2v-0.1c6.3-0.2 20.9-1.6 24.5-9.8q0 0.1 0 0.1c1.3 3.5 3.4 6.4 7 8.9q0.3 0.3 0.7 0.5 2.4 1.6 5.6 2.9-0.2-0.3-0.6-0.6c-0.5-0.5-1.2-1.4-2-2.4q-0.8-1.2-1.7-2.8c-0.8-1.5-1.6-3.3-2.2-5.3-0.7-2.2-1.2-4.7-1.2-7.5 0.8 2.5 1.9 4.9 3.1 7.3q1.6 3.1 3.7 5.9 0 0.1 0 0.1 0.9 1.3 1.9 2.4c2.5 2.8 5.4 5.2 8.9 7q0.6 0.3 1.2 0.6-0.8-1-1.6-2.1c-1.2-1.7-2.3-3.3-3.4-5q-0.7-1.1-1.3-2.2c-1.1-2.1-2.1-4.3-2.8-6.7q-0.7-2.1-1.1-4.5c0.1 0.2 1.7 2.9 4.6 5.2 1.4 1.1 3.2 2.2 5.3 2.8 1.3 0.4 2.7 0.6 4.2 0.6l0.5 4.6 0.2 1.4 1 8.8 0.2 1.8 0.1 0.2 0.5 4.8q0.3 2.2 0.2 4.4z"/>
            <path id="&lt;Path&gt;" class="s101" d="m1103.2 335.3q0 3.9-0.1 8.1-0.1 1.2-0.1 2.4-0.2 5.1-0.5 10.3c-0.4 7.1-1 14.4-1.8 21.3-0.6 4.6-1.2 9-1.9 13.2-0.8 4.1-1.6 7.9-2.5 11.3q-1.1 3.8-2.4 6.7-0.2 0.7-0.5 1.2-0.3 0.7-0.7 1.3c-2.2 3.4-6 5.3-10.1 5.1q-0.2-0.1-0.4-0.1c-6.8-0.6-11.7-6.8-10.8-13.6 1.6-12.4 2.7-25.2 3.3-36.8 0.4-6.3 0.6-12.3 0.8-17.6q0-2.5 0.1-4.8 0.1-2.7 0.1-5.1 0-1.4 0-2.8c0.1-4.7 0.1-8.2 0.1-10 0-0.8 0-1.2 0-1.2q-0.2-1.9-0.2-3.9c0-14.9 6.1-26.9 13.7-26.9 6.9 0 12.6 10 13.5 23.1 0.3 4.8 0.5 11.3 0.4 18.8z"/>
            <path id="&lt;Path&gt;" class="s101" d="m1100.7 377.4c-0.7 5.8-1.5 11.4-2.5 16.5-0.6 2.8-1.2 5.5-1.9 8q0.1-0.7 0.1-1.5 0-0.3 0-0.6 0-0.3-0.1-0.6 0-0.1 0-0.2-0.1-0.3-0.2-0.6 0-0.4-0.2-0.7-0.1-0.4-0.2-0.7-0.2-0.4-0.3-0.7-0.2-0.4-0.4-0.8-0.4-0.7-0.9-1.5-0.3-0.4-0.5-0.8-1.1-1.5-2.5-3.3-0.4-0.4-0.7-0.8-0.4-0.5-0.8-0.9-0.4-0.5-0.8-1-0.7-0.8-1.4-1.6-0.6-0.7-1.3-1.5-0.6-0.7-1.3-1.4-1-1.2-2.2-2.6c-2.6-3-5.4-6.3-8.2-10.1 0 0 19.4-4.3 26.3 7.4z"/>
            <path id="&lt;Path&gt;" class="s112" d="m1070.5 428.2l-1.2-0.3q-2-0.2-4-0.2c-8.4-0.2-15.1 1.5-20.4 4.3q-1.5 0.8-2.8 1.7c-3.4 2.1-6.1 4.9-8.3 8-5.3 7.1-7.7 15.6-9 22.3h-0.1l-4.3 1.3c2.2-11.4 0.6-23.1-4.3-33.5q-0.8-1.7-1.8-3.5-1.3-2.3-2.9-4.6-0.4-0.6-0.8-1.1c-0.2-0.3-0.3-0.5-0.5-0.7q-0.2-0.3-0.4-0.7-0.2-0.3-0.4-0.6-0.4-0.5-0.7-1c4.9-1.3 13-2.8 23.7-2.2 9.3 0.5 20.5 2.6 33 7.8q2.3 0.9 4.6 2 0.3 0.5 0.6 1z"/>
            <g id="&lt;Group&gt;">
              <path id="&lt;Path&gt;" class="s113" d="m917.6 483.7c-0.4 1.1-0.7 2.4-0.5 3.8q0.2 1.1 0.7 2.1c1.1 2.4 3.5 4.1 6.3 4.2h0.4c-1.8 1-3.8 1.5-5.9 1.2-4.6-0.8-11.7-0.9-20.8 2-7 2.2-12.4 2.3-16.3 1.1-5.6-1.7-8.2-6.3-8.1-11.9 0-5.9 2.9-9.1 7-10.9 10-4.1 27.6 0.9 31.2 0.4 5.2-0.8 7.5-0.1 14.9 1.8l-0.9 0.1c-3 0.3-5.7 2-7.3 4.5q-0.4 0.8-0.7 1.6z"/>
              <path id="&lt;Path&gt;" class="s114" d="m874.4 491.8q0.3 0.9 0.9 1.7 0.5 0.8 1.2 1.5c0.8 0.9 1.9 1.6 3 2.2q0.9 0.4 1.8 0.7 0.9 0.2 1.8 0.4 1.9 0.3 3.8 0.3c2.6-0.1 5.1-0.5 7.5-1.2q0.5-0.1 0.9-0.2l1-0.3q0.9-0.3 1.8-0.6 0.9-0.3 1.8-0.5l1-0.3q0.4-0.1 0.9-0.3 1.9-0.4 3.8-0.8c1.3-0.2 2.6-0.4 3.9-0.5 2.6-0.3 5.2-0.3 7.8 0q0.5 0 1 0.1 0.3 0 0.5 0l0.4 0.1q0.2 0 0.5 0h0.4c0.3 0 0.6-0.1 0.8-0.1 1.2-0.1 2.3-0.6 3.2-1.2 1-0.6 1.8-1.4 2.4-2.3 0.6-1 1-2.1 1.1-3.2l2.4 0.4c-0.3 1.4-0.8 2.8-1.7 4-0.8 1.2-1.9 2.2-3.1 2.9-1.2 0.8-2.6 1.2-4 1.4-0.4 0-0.7 0-1.1 0h-0.5q-0.3 0-0.6-0.1h-0.5q-0.2-0.1-0.5-0.1-0.4-0.1-0.9-0.1c-2.5-0.4-5-0.4-7.5-0.3-1.3 0.1-2.5 0.2-3.8 0.4q-1.9 0.2-3.7 0.6-0.5 0.1-0.9 0.2l-1 0.2q-0.9 0.3-1.8 0.5-0.9 0.3-1.9 0.6l-0.9 0.2q-0.5 0.1-1 0.2c-2.5 0.6-5.1 0.9-7.7 0.9q-1.9-0.1-3.8-0.5-1-0.2-1.9-0.5-0.9-0.3-1.8-0.8c-1.2-0.6-2.2-1.4-3.1-2.3q-0.6-0.8-1.1-1.6-0.5-0.8-0.8-1.7z"/>
              <path id="&lt;Path&gt;" class="s101" d="m988.7 497.7l-38.1-2.3-22.1-1.3-4-0.3h-0.4c-2.6-0.1-4.9-1.6-6.1-3.8q-0.1-0.2-0.2-0.4-0.5-1-0.7-2.1 0-0.6 0-1.2c0-1 0.2-1.8 0.5-2.6q0.3-0.8 0.7-1.6 0.9-1.3 2.2-2.4c1.4-1.1 3.2-1.9 5.1-2.1l0.9-0.1 1.4-0.1 19-2 1-0.1 37-3.9z"/>
              <path id="&lt;Path&gt;" class="s115" d="m1146.7 474.2q0 0.1 0 0.3c-1.3 6.9-4.3 13.2-8.4 18.6-2.4 3.1-5.2 5.8-8.3 8.2-4.5 3.4-9.7 6-15.5 7.4-10.6 2.7-25 4.3-44.5 3.5-37.3-2.9-70.6-9.1-107.7-9.1q-5.4 0-10.8 0.2c-6.7 0-9.2-3.6-9.6-8.4-0.1-2.4 0.2-5.1 0.9-7.8 1-4.3 2.7-8.6 4.1-11.7 1.4-3 2.5-5.1 2.5-5.1l45.7-5 0.2-0.1 13.7-1.5 10-1.1 2.6-0.3 1.5-0.1 2.1-0.3 2.4-0.2h0.1c0 0 3.3-0.4 3.3-0.4l66-13.8c9.3-2 18.9-1.4 27.8 1.7 4.5 1.6 8.9 3.8 12.9 6.7 2.8 2 5.1 4 6.2 5.8 0.9 1.5 1.7 3.4 2.3 5.4 0.8 2.3 0.9 4.7 0.5 7.1z"/>
              <path id="&lt;Path&gt;" class="s116" d="m917.8 489.6q0.1 0.2 0.2 0.4c-15.2-6.4-33.6 4.1-33.9-4.3-0.2-6.4 12.8-3.8 24.6-4.1 3 0 5.8-0.2 8.4-0.8q1.8-0.4 3.3-1.1-0.4 0.4-0.8 0.8-0.7 0.8-1.3 1.7-0.4 0.7-0.7 1.5c-0.4 1.1-0.7 2.4-0.5 3.8q0.2 1.1 0.7 2.1z"/>
              <path id="&lt;Path&gt;" class="s116" d="m931.2 486.8c-0.1 1.9-0.6 3.7-2 5.1-4.7-0.3-11.2-1.9-11.2-1.9-15.2-6.4-33.6 4.1-33.9-4.3-0.2-6.4 12.8-3.8 24.6-4.1 0 0 8.4-0.8 8.4-0.8l2.5-0.3 10.6-1.1c0 0 1.3 3.7 1 7.4z"/>
              <path id="&lt;Path&gt;" class="s15" d="m892.4 491.2q-0.3 0-0.4-0.3l-4.8-10c-0.1-0.2 0-0.6 0.2-0.7 0.3-0.1 0.6 0 0.8 0.3l4.3 8.9 4.1-9.7c0.1-0.2 0.3-0.3 0.5-0.4 0.2 0 0.4 0.1 0.5 0.3l6.4 9.1 3.8-9.5c0.1-0.2 0.3-0.3 0.5-0.3 0.2 0 0.4 0.1 0.5 0.2l6.5 11c0.2 0.2 0.1 0.6-0.2 0.7-0.2 0.2-0.6 0.1-0.7-0.2l-6-10-3.7 9.5c-0.1 0.1-0.3 0.3-0.5 0.3-0.2 0-0.4-0.1-0.5-0.2l-6.5-9.2-4.2 9.9c-0.1 0.2-0.3 0.3-0.5 0.3q-0.1 0-0.1 0z"/>
              <path id="&lt;Path&gt;" class="s15" d="m922.3 480.3l-1.6 0.1c0.1-1 0.1-2 0-3.1 0-1.9-0.1-3.8 0.2-5.4 0.8-4.4-2.4-8.7-7.1-9.5-4.8-0.9-9.3 2-10.1 6.4-0.6 3.2 5 9.8 10.2 13.4 0.4 0.2 0.4 0.7 0.2 1.1-0.2 0.2-0.5 0.3-0.8 0.3q-0.1-0.1-0.3-0.1c-4.9-3.4-11.6-10.7-10.8-14.9 1-5.3 6.3-8.8 11.8-7.7 5.6 1 9.4 6.1 8.4 11.3-0.2 1.4-0.2 3.3-0.1 5.1 0 1 0 2 0 3z"/>
              <path id="&lt;Path&gt;" class="s100" d="m1142.9 482.9c-0.4-6.8-5.5-13-13-13.6-2.2-0.1-4.3 0.2-6.1 1.2-1.2 0.7-2.1 1.7-2.8 2.9q-0.2 0.3-0.4 0.7 0 0 0 0.1-0.2 0.3-0.3 0.7c-0.1 0.2-0.2 0.4-0.3 0.6q0 0.2-0.1 0.3 0 0.1 0 0.3-0.1 0.3-0.2 0.5-0.1 0.4-0.2 0.8 0 0.2-0.1 0.5 0 0.2 0 0.4-0.1 0.6-0.2 1.3 0 0.5-0.1 1c-0.1-2.9 0.3-5.5 1.2-7.7 0.8-1.8 2-3.3 3.5-4.2 1.8-1 3.9-1.3 6.1-1.1 8.2 0.7 13.4 7.8 13 15.3z"/>
              <path id="&lt;Path&gt;" class="s101" d="m1142.9 482.9c-0.2 2.3-0.9 4.7-2.3 6.9q-1.1 1.7-2.3 3.3-0.4 0.5-0.9 1.1-0.7 0.9-1.6 1.8-0.6 0.7-1.3 1.4-0.6 0.6-1.3 1.2-0.2 0.2-0.4 0.4-0.5 0.5-1 0.9-0.2 0.1-0.4 0.3-0.4 0.4-0.9 0.7-0.2 0.2-0.5 0.4c-7-4.8-10.6-13.4-10.9-20.7 0.2-2.8 0.8-5.3 1.9-7.2 0.7-1.2 1.6-2.2 2.8-2.9 1.8-1 3.9-1.3 6.1-1.2 7.5 0.6 12.6 6.8 13 13.6z"/>
            </g>
            <path id="&lt;Path&gt;" class="s117" d="m1130 501.3c-4.5 3.4-9.7 6-15.5 7.4-10.6 2.7-25 4.3-44.5 3.5-37.3-2.9-70.6-9.1-107.7-9.1q-5.4 0-10.8 0.2c-6.7 0-9.2-3.6-9.6-8.4-0.1-2.4 0.2-5.1 0.9-7.8 19 3.8 103.5 20 138.1 16.3 29.8-3.8 33-25.2 39.4-30.5-0.9 2.2-1.3 4.8-1.2 7.7 0.3 7.3 3.9 15.9 10.9 20.7z"/>
            <path id="&lt;Path&gt;" class="s118" d="m959.2 504.2c-0.5 3.7-7.1 4.1-9.8 2.6-5.1-3.4-7.5-7.6-8.2-11.9-0.7-4.5 0.3-9.2 1.8-13.2 2.5-6.5 6.4-11.4 6.4-11.4 0 0 0 0 6.1-0.6-3.8 17 4.3 30.9 3.7 34.5z"/>
            <path id="&lt;Path&gt;" class="s113" d="m995.2 496.9c0 0-5.7-4.1-5-5-9-4-11.6-11.2-12.4-15.6-0.2-1.5-2-2.1-3.1-1l-3.2 3.1-4.2-3.3-7 0.2c-1.3 0.9-2 2.4-1.9 4 0.2 4.5 0.4 13.7-0.8 16-4 8.1-0.2 12.9-0.2 12.9h39z"/>
            <path id="&lt;Path&gt;" class="s15" d="m999.3 503.4h-35.4c0.5-4.6 4.3-9.1 10.2-11.4 1.8-0.7 3.9-1.3 6.1-1.5q2.4-0.1 4.4 0.1c13.6 1.3 14.7 12.8 14.7 12.8z"/>
            <path id="&lt;Path&gt;" class="s114" d="m1000.6 505.8c0 0.7-0.2 1.3-0.7 1.7-0.4 0.4-1 0.7-1.7 0.7h-33.2c-1.3 0-2.4-1.1-2.4-2.4 0-0.6 0.3-1.2 0.7-1.7 0.5-0.4 1.1-0.7 1.7-0.7h33.2c1.3 0 2.4 1.1 2.4 2.4z"/>
            <path id="&lt;Path&gt;" class="s114" d="m965 508.2h-9.2c-0.6 0-1.2-0.3-1.7-0.7-0.4-0.4-0.7-1-0.7-1.7 0-1.3 1.1-2.4 2.4-2.4h9.2c-0.6 0-1.2 0.3-1.7 0.7-0.4 0.5-0.7 1.1-0.7 1.7 0 1.3 1.1 2.4 2.4 2.4z"/>
            <path id="&lt;Path&gt;" class="s119" d="m981.9 443.4c0.7 7.7-3.7 10-9.4 9.8-7.7-6.1-7.7-8.2-7.7-8.2l-16.5-8.3-11.8-45.7-1.9-7.4-11.4-44.3c-2.6-10.9-0.7-22.4 5.3-32l6.5-10.2 4.1-6.6c1.5-2.4 3.8-4 6.3-4.2l9.1-1.1 3.9-0.4c2.6-0.4 5.2 0.8 7.1 3q1.2 1.4 2.3 2.9 0.3 0.4 0.5 0.7c9.5 12.7 15.3 28.9 16.4 46 2.4 35.5-4.2 96.1-3.4 101.1 0.2 1.4 0.4 2.9 0.6 4.9z"/>
            <path id="&lt;Path&gt;" class="s101" d="m976.9 476.4c-1.5 2.5-3.3 3.7-5.1 4.2-3.9 1.1-8-1-9.9-2.3-0.7-0.4-1.2-1.1-1.3-1.9 0 0-5.6-26.4-5.6-26.4l-0.4-1.9c4.5 2 11.9 4.9 17.9 5.1q1.7 0.2 3 0.2z"/>
            <path id="&lt;Path&gt;" class="s116" d="m984.6 490.6q-2-0.2-4.4-0.1c-2.2 0.2-4.3 0.8-6.1 1.5-11.4-5.8-8.4-20.1-8.4-20.1 0 0 3.2-0.7 6.6-0.5 1.5 0.1 3 0.3 4.4 0.9 0.9 0.4 1.6 1 2.3 1.7-2.3 8.5 2.1 13.8 5.6 16.6z"/>
            <path id="&lt;Path&gt;" class="s15" d="m982.1 485.1q0 0-0.1 0l-18.5-3.8c-0.4 0-0.6-0.4-0.5-0.7 0.1-0.4 0.4-0.6 0.8-0.6l18.5 3.8c0.3 0.1 0.6 0.4 0.5 0.8-0.1 0.3-0.4 0.5-0.7 0.5z"/>
            <path id="&lt;Path&gt;" class="s15" d="m966.7 487.3c-0.3 0-0.5-0.2-0.6-0.4-0.2-0.3 0-0.7 0.3-0.9l12.8-6.5c0.3-0.2 0.7-0.1 0.9 0.3 0.2 0.3 0 0.7-0.3 0.8l-12.8 6.6q-0.2 0.1-0.3 0.1z"/>
            <path id="&lt;Path&gt;" class="s15" d="m969.5 491.9c-0.3 0-0.5-0.1-0.6-0.4-0.1-0.4 0.1-0.7 0.4-0.9l12.6-4.4c0.4-0.2 0.7 0 0.9 0.4 0.1 0.3-0.1 0.7-0.4 0.8l-12.7 4.5q-0.1 0-0.2 0z"/>
            <path id="&lt;Path&gt;" class="s15" d="m984.6 490c0 0-16-0.7-16-0.7-0.3 0-0.6-0.3-0.6-0.6 0-0.4 0.3-0.7 0.7-0.7l15.9 0.7c0.4 0 0.7 0.3 0.6 0.7 0 0.3-0.3 0.6-0.6 0.6z"/>
            <path id="&lt;Path&gt;" class="s118" d="m984.3 444.8c2.3-1.7 1.9-6.8-0.8-6.6q-0.9 0.2-2.2 0.3c-1.9 0.2-4.1 0.3-6.6 0.3-7.4-0.1-16.8-1.1-22.5-1.7-3-0.4-4.9-0.6-4.9-0.6 0 0-2.4 2.3 1.8 5.4-0.1 2.2-2.2 2.5 1.4 4.2 0 0 1.6 0.9 4.1 2 4.5 2 11.9 4.9 17.9 5.1q1.7 0.2 3 0.2c10.9 0 10.4-7.2 8.8-8.6z"/>
            <path id="&lt;Path&gt;" class="s101" d="m958.3 306c-8 7.1-18.1-2.7-23.3-8.9l4.1-6.6c1.5-2.4 3.8-4 6.3-4.2l2.6-0.3c6.1-0.7 11.9 2.9 13.7 8.7 1.1 3.7 0.5 7.8-3.4 11.3z"/>
            <path id="&lt;Path&gt;" class="s100" d="m958.3 306c-2.3 2-4.7 2.7-7.2 2.4 1.8-0.2 3.6-0.9 5.3-2.4 3.9-3.5 4.5-7.6 3.3-11.3-1.5-5-6.1-8.4-11.2-8.8 5.9-0.4 11.4 3.1 13.2 8.8 1.1 3.7 0.5 7.8-3.4 11.3z"/>
            <path id="&lt;Path&gt;" class="s101" d="m1096.3 401.9c-0.8 3.5-2.1 6.5-3.6 9.1q-0.1 0-0.1 0.1c-2.7 4.2-6.3 6.9-9.8 7.5-1.5 0.2-3.1 0-4.5-0.6q-1.4-0.9-2.8-1.8c-15.6-12.5-25.3-33.5-31.2-51.8q0 0 0-0.1-1.2-3.9-2.2-7.5c-1.9-6.8-3.2-12.9-4.1-17.7q-0.1-0.6-0.2-1.2-0.5-2.2-0.7-3.9-0.2-1.2-0.3-2.1c-0.4-2-0.5-3.2-0.5-3.3 0 0 2-0.4 4.7-0.9 2.8-0.6 6.3-1.3 9.4-1.9 0 0 0.3 0.7 0.8 1.8 0.3 0.9 0.8 2.2 1.5 3.7q0.6 1.5 1.4 3.3c3 6.7 7.6 16.4 13 25.3 1.4 2.4 2.8 4.7 4.3 6.9 2.9 4.2 6 7.9 9.1 10.8q1.1 1.3 2.1 2.5c8.4 9.8 14.9 16 13.7 21.8z"/>
            <path id="&lt;Path&gt;" class="s101" d="m844.7 462.9l-7.2 10 1.9 1.6 11.4-9.3z"/>
            <path id="&lt;Path&gt;" class="s101" d="m837.5 472.9l-1.3 8.7c0 0.2 0.1 0.3 0.3 0.4 0.6 0.1 1.2-0.3 1.3-0.9l1.6-6.6z"/>
            <path id="&lt;Path&gt;" class="s100" d="m856.6 445.7l-13.2 14.8 1.3 2.4z"/>
            <path id="&lt;Path&gt;" class="s101" d="m851.1 464.6l-4 8.1c-0.4 0.7-0.1 1.6 0.6 1.9 0.5 0.3 1.1 0.2 1.5-0.3l6.9-8z"/>
            <path id="&lt;Path&gt;" class="s101" d="m858.6 447.9l-7.5 16.7 5 1.7c0 0 7.6-2.4 9.4-15.1 0 0 1.2-5.4-6.9-3.3z"/>
            <path id="&lt;Path&gt;" class="s100" d="m1037.9 224.2c0 0 4.5-2.8 6.8-2.8 2.4 0 3 2.1 3 2.1 0 0-4.2 1.6-9.8 0.7z"/>
            <path id="&lt;Path&gt;" class="s110" d="m1020.7 209.5c2.2-1 4.5-1.7 6.9-2.5 1.1-0.4 2.4-0.6 3.6-0.6 1.3 0 2.5 0.3 3.6 0.8q-1.7-0.5-3.6-0.5-1.8 0.1-3.5 0.7c-2.3 0.7-4.7 1.5-7 2.1z"/>
            <path id="&lt;Path&gt;" class="s72" d="m1035.6 203.1c0 0-5.3-0.5-18.3 3.3l-1.3-1.9 1.7-0.4 0.9 0.6-0.1-0.8 15-3.6 1.5-1.6z"/>
            <path id="&lt;Path&gt;" class="s110" d="m1057.6 206.8c-2.4-0.3-4.8-0.8-7.2-1.3q-1.8-0.4-3.6-0.3-1.8 0.2-3.6 0.9c1.1-0.6 2.3-1 3.5-1.2 1.3-0.2 2.5-0.1 3.7 0.2 2.4 0.5 4.8 1 7.2 1.7z"/>
            <path id="&lt;Path&gt;" class="s72" d="m1042.8 200.7q0.3 0.3 0.7 0.5-0.7 0.1-0.7 0.1z"/>
            <path id="&lt;Path&gt;" class="s72" d="m1050.1 201.2q-2.1-0.2-3.6-0.1-0.8-1.2-1.7-2.8l3.4 0.4q0 0.1 0 0.1 0.9 1.3 1.9 2.4z"/>
            <path id="&lt;Path&gt;" class="s73" d="m1010.8 195q0 0 0-0.1 0 0.7 0 1.4 0-0.1 0-0.2 0-0.5 0-1.1z"/>
            <path id="&lt;Path&gt;" class="s73" d="m1010.9 194q0-0.2 0-0.3-0.1 0.6-0.1 1.2 0-0.4 0.1-0.9 0 0 0 0z"/>
            <path id="&lt;Path&gt;" class="s73" d="m1010.9 193q0 0.1 0 0.3 0-0.2 0-0.3z"/>
            <path id="&lt;Path&gt;" class="s73" d="m1011.2 191q0 0.1 0 0.2 0-0.1 0-0.2z"/>
            <path id="&lt;Path&gt;" class="s72" d="m1069.9 427.2q-2.3-1.1-4.6-2c-12.5-5.2-23.7-7.3-33-7.8-10.7-0.6-18.8 0.9-23.7 2.2q-0.1-0.1-0.2-0.3c-0.3-0.4-0.5-0.9-0.8-1.3q-0.2-0.3-0.4-0.7-0.2-0.3-0.4-0.6-0.2-0.4-0.4-0.7-0.6-1-1.2-2-0.5-0.9-0.9-1.7c2.5-1.1 5.3-1.8 8.1-2.4q1.9-0.3 3.8-0.5 1.2-0.2 2.5-0.2 1.2-0.1 2.5-0.2 2-0.1 4 0 0.5 0 1 0 0.5 0 1 0 0.4 0.1 0.8 0.1 1.5 0.1 3 0.2 0.5 0 0.9 0.1 0.2 0 0.4 0 0.5 0 1 0.1 1.4 0.1 2.7 0.3 0.4 0.1 0.9 0.1 3.1 0.5 6.1 1.1 0.4 0 0.8 0.1 0.5 0.1 0.9 0.2 0.8 0.2 1.7 0.4 2.5 0.5 4.9 1.2 0.5 0.1 0.9 0.2 2.8 0.8 5.3 1.6 0.6 0.2 1.1 0.3 0.1 0.1 0.2 0.1c3.2 1.1 6 2.2 8.1 3.1q1.6 0.8 2.6 1.4 0.7 0.4 1 0.7c-1.1 3.9-0.6 6.9-0.6 6.9z"/>
            <path id="&lt;Path&gt;" class="s112" d="m1069.8 418.7q-0.2 0.5-0.3 0.9-1-0.6-2.6-1.4c-2.1-0.9-4.9-2-8.1-3.1q-0.1 0-0.2-0.1-0.5-0.1-1.1-0.3-2.5-0.8-5.3-1.6-0.4-0.1-0.9-0.2-2.4-0.7-4.9-1.2-0.8-0.2-1.7-0.4-0.4-0.1-0.9-0.2-0.4-0.1-0.8-0.1-3-0.6-6.1-1.1-0.5 0-0.9-0.1-1.3-0.2-2.7-0.3-0.5-0.1-1-0.1-0.2 0-0.4 0-0.4-0.1-0.9-0.1-1.5-0.1-3-0.2-0.4 0-0.8-0.1-0.5 0-1 0-0.5 0-1 0-2-0.1-4 0-1.2 0.1-2.5 0.2-1.3 0-2.5 0.2-1.9 0.2-3.8 0.5c-2.8 0.6-5.6 1.3-8.1 2.4q-0.7-1.2-1.3-2.4c0 0 8.2-2.4 20.3-2.7 9.5-0.3 21.3 0.8 33.4 5.2 3.4 1.3 6.7 2.8 10.1 4.6q1.5 0.8 3 1.7z"/>
            <path id="&lt;Path&gt;" class="s100" d="m1057.9 273.8c0 0-0.1 5-2.2 9.5-1.7 3.7-4.9 7.2-10.6 6.9q-1.6-0.1-3.1-0.5c-9.9-2.7-12.1-15.9-12.1-15.9 1.3-5.2 1.7-14.2 1.9-20.7 0-1.7 0.1-3.2 0.1-4.4q1.1 0.6 2.2 1.1 1.8 0.9 3.6 1.6c2.3 0.9 4.5 1.4 6.3 1.5 3.1 0.2 6.6-2.1 10.1-5.1q0.2-0.2 0.4-0.5c0.2 5.3 0.7 14.8 2 21.4 0.4 2.1 0.9 3.8 1.4 5.1z"/>
            <path id="&lt;Path&gt;" class="s96" d="m1104.6 342.6q0 1.4-0.1 2.8-0.6-1-1.3-1.8c-2.3-2.8-4.9-4.8-7.5-6.1-8.7-4.5-18.5-2.7-23.6-1.1 0 0-0.1-3.1 0.2-7.6 0.6-12.4 3.6-35.6 16.5-35.8q0.9 0 1.9 0.1 0.3 0 0.6 0.1c11.7 2.5 13.2 23.4 13.3 43.4q0 3 0 6z"/>
            <path id="&lt;Path&gt;" class="s120" d="m1075.7 335.4q0 3.6-0.1 7.9c-3.3-3.2-3.5-6.9-3.5-6.9 1-0.4 2.3-0.7 3.6-1z"/>
            <path id="&lt;Path&gt;" class="s120" d="m1104.6 345.4q-0.8 0.2-1.6 0.4 0-1.2 0.1-2.4 0.7 0.9 1.5 2z"/>
            <path id="&lt;Path&gt;" class="s96" d="m1104.6 336.6c0 2.9 0 5.9-0.1 8.8q-0.7-1.1-1.4-2c-8.2-9.7-19.9-9.5-27.4-8-1.3 0.3-2.6 0.6-3.6 1 0 0-0.1-3.1 0.2-7.6 0.9-0.2 2.1-0.3 3.5-0.4 6.8-0.7 18-0.7 25.7 5.2q1.7 1.3 3.1 3z"/>
            <path id="&lt;Path&gt;" class="s110" d="m1041.7 237.2c1.8 0 3.4-0.1 5-0.5q1.2-0.3 2.3-0.9c0.8-0.4 1.4-0.9 2.2-1.4-0.5 0.7-1.1 1.4-1.8 1.9-0.7 0.6-1.6 1-2.4 1.2q-1.4 0.4-2.7 0.3c-0.9-0.1-1.8-0.3-2.6-0.6z"/>
            <path id="&lt;Path&gt;" class="s109" d="m1124.8 449.2c-8.9-3.1-18.5-3.7-27.8-1.7l-66 13.8-3.3 0.4c0-0.1-0.1 0-0.1 0l-2.4 0.2c1.4-6.3 3.6-13.9 8.3-20.2 2.3-3.1 5.1-5.8 8.5-8q0.1-0.1 0.1-0.1c0.9-0.6 1.9-1.1 2.8-1.6 5.3-2.8 12-4.5 20.4-4.3q1.6 0 3.2 0.2 0.4 0 0.8 0l1.2 0.3 1.8 0.5 3.2 0.9 2.4 0.6z"/>
            <path id="&lt;Path&gt;" class="s101" d="m1047.6 308.3c-0.5-2.9-1-6.8-1.3-10.9q0-0.3-0.1-0.7c-0.2-2.4-0.3-6.6-0.5-9 0-0.7-0.9-1-1.3-0.4-1.1 1.5-2.4 3.8-2.3 5.5 0.1 1.1 0.2 2.1 0 3.1-1 5.9-3.7 8.8-3.9 9 0 0 10.1 8 10.1 8 0 0-0.3-1.8-0.7-4.6z"/>
            <path id="&lt;Path&gt;" class="s101" d="m862.9 452.8c-0.2 4.6-6 9-10 11.5-2.2 1.4-4.9 1.2-6.8-0.3q-0.7-0.5-1.4-1.1c2.9-4.4 11.9-17.2 11.9-17.2 0 0 3.3 3.7 6.3 7.1z"/>
            <g id="&lt;Group&gt;">
              <g id="&lt;Group&gt;">
                <path id="&lt;Path&gt;" class="s96" d="m1038.2 320.5l-17.8-3.1c-0.9-0.2-1.5-1-1.3-1.9l6.9-39c0.2-0.9 1.1-1.5 2-1.3l17.7 3.1c0.9 0.1 1.6 1 1.4 1.9l-7 38.9c-0.1 0.9-1 1.5-1.9 1.4z"/>
                <path id="&lt;Path&gt;" class="s15" d="m1044.7 279.8l-7 38.9c-0.2 0.9-1 1.5-1.9 1.3l-17.8-3c-0.9-0.2-1.5-1.1-1.4-2l6.8-37.6 0.2-1.3c0.2-0.9 1-1.5 2-1.4l1.6 0.3 16.1 2.8c0.9 0.2 1.5 1 1.4 2z"/>
                <g id="&lt;Group&gt;">
                  <path id="&lt;Path&gt;" class="s96" d="m1035.7 283.4c-0.6 1.8-2.3 2.8-3.8 2.4-1.5-0.5-2.3-2.4-1.7-4.1 0.5-1.8 2.2-2.9 3.7-2.4 1.6 0.5 2.3 2.3 1.8 4.1z"/>
                  <path id="&lt;Path&gt;" class="s15" d="m1034.7 283.1c-0.4 1.1-1.5 1.8-2.4 1.5-1-0.3-1.5-1.5-1.1-2.6 0.3-1.2 1.4-1.8 2.4-1.5 0.9 0.3 1.4 1.4 1.1 2.6z"/>
                </g>
              </g>
              <g id="&lt;Group&gt;">
                <path id="&lt;Path&gt;" class="s101" d="m1038.2 304.9l-17.2-14.5c-0.6-0.4-1.4-0.2-1.7 0.4-0.6 1.1-0.4 2.6 0.5 3.5l12.1 12.5z"/>
                <path id="&lt;Path&gt;" class="s101" d="m1031.9 306.8l-11.2-7.6c-1-0.7-2.4-0.3-2.8 0.9-0.2 0.8 0 1.6 0.6 2.2l9.7 9 0.6-3.5z"/>
                <path id="&lt;Path&gt;" class="s101" d="m1028.2 311.3l-9.5-6.9c-0.6-0.4-1.3-0.1-1.5 0.5-0.6 1.4-0.1 3.1 1.1 4.1l8.9 7.8z"/>
                <path id="&lt;Path&gt;" class="s101" d="m1017.1 309.3c-0.5 1.6-0.1 3.3 1.1 4.4l8.3 7.3 0.7-4.2-8.9-7.8c-0.4-0.3-1-0.1-1.2 0.3z"/>
                <path id="&lt;Path&gt;" class="s101" d="m1050.4 325.8l-2.1-12.9-10.1-8-9.4 2.9-2.3 13.2 9.8 7.6c0 0 15.5 5 14.1-2.8z"/>
              </g>
            </g>
            <path id="&lt;Path&gt;" class="s121" d="m1096.3 401.9q0.1-0.7 0.1-1.5 0-0.3 0-0.6 0-0.3-0.1-0.6 0-0.1 0-0.2-0.1-0.3-0.2-0.6 0-0.4-0.2-0.7-0.1-0.4-0.2-0.7-0.2-0.4-0.3-0.7-0.2-0.4-0.4-0.8-0.4-0.7-0.9-1.5-0.3-0.4-0.5-0.8-1.1-1.5-2.5-3.3-0.4-0.4-0.7-0.8-0.4-0.5-0.8-0.9-0.4-0.5-0.8-1-0.7-0.8-1.4-1.6-0.6-0.7-1.3-1.5-0.6-0.7-1.3-1.4-1-1.2-2.2-2.6c0 0 10.5 5 15.6 13.8-0.6 2.8-1.2 5.5-1.9 8z"/>
            <path id="&lt;Path&gt;" class="s121" d="m1103.1 343.4q-0.1 1.2-0.1 2.4-0.2 5.1-0.5 10.3-0.3-0.6-0.6-1.3c-5.2-12-21.5-15.8-26.2-16.6q0-1.4 0-2.8c7.5-1.5 19.2-1.7 27.4 8z"/>
            <path id="&lt;Path&gt;" class="s122" d="m1075.5 348.1c-0.2 5.3-0.4 11.3-0.8 17.6q-1.4 0.6-3.3 1.1c-1.5-2.2-2.9-4.5-4.3-6.9q0.9-0.4 1.7-1 0.1-0.1 0.3-0.2c3.6-2.6 5.8-6.5 6.4-10.6z"/>
            <path id="&lt;Path&gt;" class="s122" d="m1044.3 364.3c-36.1-9.1-47.4 1.9-50.1 5.7-0.6-2.1-1-3.8-1.3-5 0.2-0.2 17.7-16 49.2-8.2q1 3.6 2.2 7.5z"/>
            <path id="&lt;Path&gt;" class="s96" d="m1022 278.3q-0.9 0.6-1.7 1.2-0.7 0.5-1.4 1c-3.6 2.7-6.8 5.8-9.8 9.2l-1.4 0.5-4.7-3.2c0-0.1 5.6-5.1 12.8-7.5 2-0.7 4.1-1.1 6.2-1.2z"/>
            <path id="&lt;Path&gt;" class="s123" d="m1066.8 417c-3.4-1.8-6.7-3.3-10.1-4.6-10.9-15.7-13.4-48.4-13.4-48.4 0 0 0.3 0.2 1 0.4 4.8 14.8 12 31.3 22.9 43.7-0.4 3.2-0.5 6.1-0.4 8.9z"/>
            <path id="&lt;Path&gt;" class="s110" d="m1056.5 268.7c-0.2-0.6-4-10.8-5.3-14.4-9.1 3.7-15.7 1.2-19.4-1.2 0-1.7 0.1-3.2 0.1-4.4q1.1 0.6 2.2 1.1c3.6 1.7 7.1 3 9.9 3.1 3.1 0.2 6.6-2.1 10.1-5.1q0.2-0.2 0.4-0.5c0.2 5.3 0.7 14.8 2 21.4z"/>
            <path id="&lt;Path&gt;" class="s124" d="m965 508.2h-1.3c-1.3 0-2.3-1.1-2.3-2.4 0-0.6 0.2-1.2 0.7-1.7 0.4-0.4 1-0.7 1.6-0.7h1.3c-0.6 0-1.2 0.3-1.7 0.7-0.4 0.5-0.7 1.1-0.7 1.7 0 1.3 1.1 2.4 2.4 2.4z"/>
            <path id="&lt;Path&gt;" class="s100" d="m972.3 471.4c0.3-5.4 0.5-11.3 0.6-15.1-9-1-14.7-4-17.9-6.3l-0.4-1.9c4.5 2 11.9 4.9 17.9 5.1q1.7 0.2 3 0.2l1.2 18.9c-1.4-0.6-2.9-0.8-4.4-0.9z"/>
            <path id="&lt;Path&gt;" class="s100" d="m941.2 494.9l-12.7-0.8-4-0.3h-0.4c-2.6-0.1-4.9-1.6-6.1-3.8 0 0 6.5 1.6 11.2 1.9 1.4-1.4 1.9-3.2 2-5.1l9.5 0.4c0 0 1-2.7 2.3-5.5-1.5 4-2.5 8.7-1.8 13.2z"/>
            <path id="&lt;Path&gt;" class="s100" d="m1046.6 331c-2.7 3.4-9.8 0.9-9.8 0.9-0.4-2-0.5-3.2-0.5-3.3 2.9 2.2 5.9 3.2 10.3 2.4z"/>
            <path id="&lt;Path&gt;" class="s100" d="m1015.3 230.5c-1.9-2-3.5-17.7-3.7-19.6q0.4-0.1 0.8-0.2l1.3 10.7v0.1c0 0.1 0.4 3.4 0.4 3.4q0 0.1 0 0.2 0.4 2.8 1.2 5.4z"/>
            <path id="&lt;Path&gt;" class="s100" d="m1066.8 222.9q0.1-2.2-0.2-4.4l-0.5-4.8-0.1-0.2-0.2-1.8-1-8.8q0.3 0 0.6-0.1c0.3 2.3 2 17.1 1.4 20.1z"/>
            <path id="&lt;Path&gt;" class="s112" d="m1013.7 419.2l-1.6 0.4-2.4-10.3 1.6-0.4z"/>
            <path id="&lt;Path&gt;" class="s112" d="m1057.2 424.9l-1.6-0.4 2.7-10.3 1.6 0.4z"/>
            <path id="&lt;Path&gt;" class="s112" d="m1030.7 408.2l1.6-0.1 0.5 10.6-1.6 0.1z"/>
            <path id="&lt;Path&gt;" class="s83" d="m1031.9 248.7c0 1.2-0.1 2.7-0.1 4.4-0.2 6.5-0.6 15.5-1.9 20.7h-0.7c-0.1 0-0.8 0.5-2 1.2l-1.6-0.3c-1-0.1-1.8 0.5-2 1.4l-0.2 1.3q-0.7 0.4-1.4 0.9c-2.1 0.1-4.2 0.5-6.2 1.2 8-15.7 6.8-30.5 5-38.9 1.8 2.2 4 4 6.4 5.5 1.5 0.9 3.1 1.8 4.7 2.6z"/>
            <path id="&lt;Path&gt;" class="s122" d="m1012.8 302.8c-6 9.3-13.5 19.6-22.2 29.2 1.1-3.5 2.4-7.7 3.7-12.2 4.9-3.5 12.1-9.3 18.5-17z"/>
            <path id="&lt;Path&gt;" class="s125" d="m1029.8 155.1c3.3 4.2-0.4 12.5-8.1 18.6-7.8 6-16.7 7.4-20 3.2-3.3-4.2-1-14.6 6.8-20.6 7.8-6 18-5.4 21.3-1.2z"/>
            <path id="&lt;Path&gt;" class="s125" d="m1006.3 183.4c0 0 28.5-0.3 28.5-23.3 1.9 3.6 1.4 26.2-28.5 23.3z"/>
            <path id="&lt;Path&gt;" class="s83" d="m1035.8 191.7c-3.6 8.2-18.2 9.6-24.5 9.8 0 0 15.5-4.9 20.6-11.1 5-6.2 3.4 0.1 3.9 1.3z"/>
            <path id="&lt;Path&gt;" class="s111" d="m1049.1 204.1c-6-0.9-11.8-5.6-12.8-8.5-6.1 7.6-24.7 8.2-24.7 8.2l-0.3-2.2v-0.1c6.3-0.2 20.9-1.6 24.5-9.8q0 0.1 0 0.1c1.3 3.5 3.4 6.4 7 8.9q0.3 0.3 0.7 0.5 2.4 1.6 5.6 2.9z"/>
            <path id="&lt;Path&gt;" class="s111" d="m1044.5 192.8c-0.6-0.1-1.4 0-1.9 0.2-0.7-2.2-1.2-4.7-1.2-7.5 0.8 2.5 1.9 4.9 3.1 7.3z"/>
            <path id="&lt;Path&gt;" class="s111" d="m1066.6 218.5l-0.5-4.8-0.1-0.2-0.2-1.8-1-8.8-0.2-1.4-0.5-4.6c-1.5 0-2.9-0.2-4.2-0.6q-0.7-0.2-1.4-0.5-0.2-0.1-0.4-0.2-0.4-0.2-0.9-0.4-0.2-0.1-0.4-0.3-0.4-0.2-0.8-0.5-0.2-0.1-0.4-0.2-0.5-0.4-1-0.7c-2.9-2.3-4.5-5-4.6-5.2q0.4 2.4 1.1 4.5c1.2 1.5 3 3.5 4.8 4.6 0.9 2.7 1.9 5.9 2.7 9.3q0.2 0.7 0.4 1.5c1.9 8.3 3.1 17.5 0.8 23.9-4.9 13.8-13.6 20.4-14 20.7 2.6-0.6 5.5-2.5 8.3-5q0.2-0.2 0.4-0.5c1.5-1.4 3-2.9 4.4-4.5q0.6-0.7 1.2-1.4c4.2-5.1 6.6-11.7 6.7-18.5q0.1-2.2-0.2-4.4z"/>
            <path id="&lt;Path&gt;" class="s72" d="m1062.3 200.5l-1 2.1q-3.4-0.6-6.1-0.9-0.7-1.1-1.3-2.2l5.9 0.7v0.8l0.8-0.7z"/>
            <g id="&lt;Group&gt;">
              <path id="&lt;Path&gt;" class="s111" d="m1036.8 216.2c0.5 2.6-2.7 5.3-7 6-4.2 0.7-8.1-0.8-8.5-3.4-0.4-2.7 3.8-3.6 8.1-4.3 4.3-0.7 7-1 7.4 1.7z"/>
              <path id="&lt;Path&gt;" class="s110" d="m1028.1 220.7c-0.1-0.1-0.1-0.2-0.1-0.2l1.5-3.1-8.5 2.8q-0.1 0-0.2-0.1 0-0.1 0.1-0.1l8.8-2.9q0 0 0.1 0.1 0 0 0 0.1l-1.5 3.1 9.9-2.7q0.1 0 0.2 0.1 0 0.1-0.1 0.1l-10.2 2.8q0 0 0 0z"/>
            </g>
            <g id="&lt;Group&gt;">
              <path id="&lt;Path&gt;" class="s111" d="m1047.1 215.4c-0.4 2.6 2.7 5.3 7 6 4.3 0.8 8.1-0.8 8.5-3.4 0.5-2.6-3.8-3.6-8.1-4.3-4.3-0.7-7-0.9-7.4 1.7z"/>
              <path id="&lt;Path&gt;" class="s110" d="m1055.8 219.9c0 0-10.2-2.7-10.2-2.7q0-0.1 0-0.2 0 0 0.1 0l9.9 2.6-1.5-3.1q0 0 0-0.1 0.1 0 0.2 0l8.7 2.8q0.1 0 0.1 0.1-0.1 0.1-0.2 0.1l-8.5-2.7 1.5 3q0.1 0.1 0 0.2 0 0-0.1 0z"/>
            </g>
            <path id="&lt;Path&gt;" class="s125" d="m979.9 306.3c-0.4-4-0.2-8.1 0.8-12 6.2-23.7 27.1-30.4 16.3-80.3-3.4-15.9-4-27.9-2.6-37 0 1.1 3.6 33.1 14.3 57.4 9 20.2-27.3 51.1-28.8 71.9z"/>
            <path id="&lt;Path&gt;" class="s126" d="m1104.6 336.6c0 2.9 0 5.9-0.1 8.8-2.5-3.8-5.6-6.3-8.8-7.9 7.2-26.6-3.2-40.6-6.9-44.5q0.9 0 1.9 0.1c12.3 1.8 13.8 23.1 13.9 43.5z"/>
            <path id="&lt;Path&gt;" class="s15" d="m881.5 498.1c-5.6-1.7-8.2-6.3-8.1-11.9 0-5.9 2.9-9.1 7-10.9 1.2 5 2.9 14.7 1.1 22.8z"/>
            <path id="&lt;Path&gt;" class="s127" d="m1023.3 407.2c-12.1 0.3-20.3 2.7-20.3 2.7-2.8-5.7-4.9-11-6.4-16.1 0.4-7.3-0.3-13.7-1.3-18.7 2.6 4.6 7 13.3 16.4 14.8 15.2 2.4 2.8 13.2 11.6 17.3z"/>
            <path id="&lt;Path&gt;" class="s83" d="m1107.9 306c-6-9.4-10.4-20.1-13.7-31.1-5.8 9.1-25.6-2.8-32.2-7.1-2.6-11.4-3.1-25-3.1-25-1.4 1.6-2.9 3.1-4.4 4.5 0.2 5.3 0.7 14.8 2 21.4 0.4 2.1 0.9 3.8 1.4 5.1q0 0 0.4 0.1 0.1 0.1 0.2 0.1 0.4 0.2 1.2 0.6c1.2 0.6 3.1 1.4 5.4 2.7 5.8 3 14.7 8.1 25.6 15.8q0.2 0 0.4-0.1 0.1 0.1 0.2 0.2c11.7 2.5 13.2 23.4 13.3 43.4q0 3 0 6c9.2-6.6 15.1-17.9 3.3-36.6z"/>
            <path id="&lt;Path&gt;" class="s100" d="m936.5 391c-17.7 26.2-58.3 52.4-70.2 59.7 6.6-4.7 55.7-40.4 68.3-67.1z"/>
          </g>
          <g id="&lt;Group&gt;">
            <g id="&lt;Group&gt;">
              <g id="&lt;Group&gt;">
                <g id="&lt;Group&gt;">
                  <path id="&lt;Path&gt;" class="s128" d="m873.5 505.3h-59.8v-8.9l59.2 3.5z"/>
                </g>
                <g id="&lt;Group&gt;">
                  <path id="&lt;Path&gt;" class="s128" d="m808.2 383.5l4.8 1-0.7 112-18.2 1.6c0 0-3-31.3-3-33 0-1.6 17.1-81.6 17.1-81.6z"/>
                </g>
                <path id="&lt;Path&gt;" class="s129" d="m875.1 501c-0.1 0-78.2-3.2-78.2-3.2l-0.9 11h79.1c1.9 0 3.4-1.7 3.4-3.9 0-2.2-1.5-3.9-3.4-3.9z"/>
                <path id="&lt;Path&gt;" class="s130" d="m673.5 397.7l134.7-14.2v111l-129.8-1.4z"/>
                <g id="&lt;Group&gt;">
                  <path id="&lt;Path&gt;" class="s131" d="m679 493.1q-0.3 0-0.5 0-0.2 0-0.4 0c-1.2 0.2-2.3 1.2-3.1 2.7-0.6 1.4-1.1 3.2-1.1 5.2 0 1.9 0.5 3.7 1.1 5.1 0.9 1.7 2.1 2.7 3.5 2.7h135.7v-14.3z"/>
                </g>
                <g id="&lt;Group&gt;">
                  <path id="&lt;Path&gt;" class="s132" d="m818.8 501.7c0 3.9-2 7.1-4.6 7.1-2.5 0-4.5-3.2-4.5-7.1 0-4 2-7.2 4.5-7.2 2.6 0 4.6 3.2 4.6 7.2z"/>
                </g>
              </g>
              <g id="&lt;Group&gt;">
                <path id="&lt;Path&gt;" class="s131" d="m816.7 501.7c0 1.6-1.1 2.9-2.5 2.9-1.3 0-2.4-1.3-2.4-2.9 0-1.7 1.1-3 2.4-3 1.4 0 2.5 1.3 2.5 3z"/>
              </g>
            </g>
            <path id="&lt;Path&gt;" class="s133" d="m673.9 401.9l64.2-1.2c26-0.5 44.8 24.6 36.9 49.4l-14.1 44.8 47.3-0.4v-111l-134.7 14.2z"/>
            <path id="&lt;Path&gt;" class="s134" d="m675.1 427.9c0 0 16.5 59.9 43.8 65.7l-40.4-0.5z"/>
          </g>
        </g>
        <g id="&lt;Group&gt;">
          <path id="&lt;Path&gt;" class="s99" d="m1028.7 362.1c-2 0.1-3.7 1-4.8 2.4-1.7-0.4-3.6 0-5.1 1.2-2.8 2.2-3.3 6.2-1.1 9 2.2 2.8 12.4 6.9 12.4 6.9 0 0 5.3-9.7 5.2-13.3-0.1-3.5-3.1-6.3-6.6-6.2z"/>
          <path id="&lt;Path&gt;" class="s99" d="m1142.1 225.6c-1.4-1-3.1-1.3-4.7-0.9-1.1-1.2-2.7-2-4.4-1.9-3.2 0-5.8 2.6-5.8 5.9 0.1 3.2 5.2 11.8 5.2 11.8 0 0 9.2-4.1 11.1-6.8 1.8-2.6 1.2-6.2-1.4-8.1z"/>
          <path id="&lt;Path&gt;" class="s135" d="m1091.6 129.6c-2.9 1-5.1 3.1-6.3 5.6-2.8 0.3-5.5 1.7-7.4 4.1-3.4 4.6-2.4 11 2.2 14.4 4.5 3.4 22 5.3 22 5.3 0 0 4-17.2 2.4-22.6-1.7-5.4-7.5-8.4-12.9-6.8z"/>
          <path id="&lt;Path&gt;" class="s136" d="m1096.7 261.8c-1.6-1.2-3.6-1.5-5.5-1.1-1.3-1.4-3.1-2.3-5.1-2.3-3.8 0-6.9 3.1-6.8 6.8 0 3.8 5.9 13.9 5.9 13.9 0 0 10.8-4.7 13-7.7 2.2-3.1 1.6-7.4-1.5-9.6z"/>
          <path id="&lt;Path&gt;" class="s135" d="m870.2 391.7c-2.4-1.4-5.2-1.5-7.6-0.7-1.9-1.7-4.5-2.6-7.3-2.2-5 0.6-8.6 5.2-8 10.3 0.6 5.1 10.3 17.7 10.3 17.7 0 0 13.7-8.1 16.2-12.6 2.4-4.4 0.8-10.1-3.6-12.5z"/>
          <g id="&lt;Group&gt;">
            <path id="&lt;Compound Path&gt;" fillrule="evenodd" class="s15" d="m959.3 358.7c-0.6 0.5-1.4 0.9-2.2 1l-14.4 1.8q-0.2 0-0.4 0-1 0-1.9-0.5c-1-0.6-1.7-1.6-1.9-2.8l-1.7-14.4c-0.2-1 0.1-2 0.7-2.8 0.6-0.7 1.5-1.2 2.5-1.4l14.4-1.8c2.1-0.2 4 1.3 4.2 3.3l1.8 14.4c0.1 1.2-0.3 2.4-1.1 3.2zm0.4-3.1l-1.7-14.4c-0.2-1.6-1.6-2.7-3.1-2.7q-0.2 0-0.4 0l-14.4 1.8c-0.8 0.1-1.5 0.5-2 1.2-0.5 0.6-0.8 1.4-0.7 2.2l1.8 14.4c0.1 1 0.7 1.8 1.6 2.3 1.5-2.7 4.6-4.8 8.5-5.3 3.8-0.5 7.3 0.8 9.5 3.1 0.7-0.7 1.1-1.6 0.9-2.6z"/>
            <path id="&lt;Path&gt;" class="s15" d="m947.6 341.8c-3.5 0.4-5.9 3.6-5.5 7 0.4 3.5 3.6 6 7.1 5.6 3.4-0.5 5.9-3.6 5.5-7.1-0.5-3.5-3.6-6-7.1-5.5z"/>
          </g>
          <g id="&lt;Group&gt;">
            <path id="&lt;Compound Path&gt;" fillrule="evenodd" class="s15" d="m1113.8 405.9c-1 0.4-2.2 0.5-3.3 0.2l-19.6-5q-0.3-0.1-0.6-0.2-1.3-0.5-2.1-1.6c-1.1-1.3-1.5-3-1-4.6l5-19.7c0.4-1.3 1.2-2.5 2.4-3.2 1.3-0.7 2.7-0.9 4-0.5l19.6 5c2.9 0.8 4.5 3.6 3.8 6.4l-5 19.7c-0.5 1.6-1.6 2.9-3.2 3.5zm2.2-3.8l5.1-19.6c0.6-2.1-0.6-4.3-2.6-5.1q-0.2-0.1-0.5-0.2l-19.6-5c-1.1-0.3-2.3-0.1-3.3 0.4-1 0.6-1.7 1.6-2 2.7l-5 19.6c-0.4 1.3-0.1 2.7 0.8 3.8 3.4-2.8 8.6-4 13.8-2.6 5.2 1.3 9.1 4.8 10.8 8.9 1.3-0.5 2.2-1.5 2.5-2.9z"/>
            <path id="&lt;Path&gt;" class="s15" d="m1107.4 377.9c-4.8-1.2-9.6 1.7-10.8 6.4-1.2 4.7 1.6 9.6 6.3 10.8 4.8 1.2 9.6-1.6 10.8-6.4 1.3-4.7-1.6-9.5-6.3-10.8z"/>
          </g>
          <g id="&lt;Group&gt;">
            <path id="&lt;Compound Path&gt;" fillrule="evenodd" class="s15" d="m943.6 451.8c-1 0.4-2 0.4-3 0.2l-18.1-4.7q-0.3-0.1-0.6-0.2-1.1-0.5-1.9-1.5c-1-1.1-1.4-2.7-1-4.2l4.7-18.1c0.3-1.2 1.1-2.3 2.2-2.9 1.1-0.7 2.4-0.9 3.7-0.5l18.1 4.6c2.5 0.7 4.1 3.3 3.4 5.9l-4.6 18.1c-0.4 1.5-1.5 2.7-2.9 3.3zm2-3.5l4.7-18.1c0.5-2-0.6-4-2.4-4.7q-0.2-0.1-0.5-0.1l-18-4.7c-1.1-0.3-2.1-0.1-3 0.4-1 0.6-1.6 1.4-1.9 2.5l-4.6 18c-0.4 1.2-0.1 2.5 0.7 3.5 3.2-2.6 7.9-3.6 12.7-2.4 4.8 1.2 8.4 4.5 10 8.3 1.1-0.5 2-1.5 2.3-2.7z"/>
            <path id="&lt;Path&gt;" class="s15" d="m937.6 426c-4.3-1.1-8.8 1.5-9.9 5.9-1.1 4.3 1.5 8.8 5.9 9.9 4.3 1.1 8.8-1.5 9.9-5.9 1.1-4.3-1.5-8.8-5.9-9.9z"/>
          </g>
        </g>
      </g>
    </g>
  </g>
</svg>