<?xml version="1.0" encoding="UTF-8"?>
<svg xmlns="http://www.w3.org/2000/svg" xmlns:xlink="http://www.w3.org/1999/xlink" width="193px" height="192px" viewBox="0 0 194 192" version="1.1">
<g id="surface1">
<path style=" stroke:none;fill-rule:nonzero;fill:rgb(40%,77.647059%,72.941176%);fill-opacity:1;" d="M 191.851562 96 L 178.382812 112.460938 L 184.472656 132.621094 L 165.835938 142.800781 L 163.808594 163.886719 L 142.773438 165.917969 L 132.625 184.601562 L 112.515625 178.496094 L 96.09375 192 L 79.675781 178.496094 L 59.382812 184.601562 L 49.417969 165.917969 L 28.382812 163.886719 L 26.351562 142.796875 L 7.53125 132.625 L 13.808594 112.464844 L 0.339844 96 L 13.808594 79.539062 L 7.53125 59.191406 L 26.351562 49.203125 L 28.382812 28.113281 L 49.417969 26.078125 L 59.382812 7.210938 L 79.675781 13.503906 L 96.09375 0 L 112.515625 13.503906 L 132.625 7.210938 L 142.773438 26.082031 L 163.808594 28.117188 L 165.835938 49.207031 L 184.472656 59.191406 L 178.382812 79.539062 Z M 191.851562 96 "/>
<path style=" stroke:none;fill-rule:nonzero;fill:rgb(100%,100%,100%);fill-opacity:1;" d="M 104.6875 154.558594 C 75.757812 154.558594 55.390625 139.164062 55.390625 109.511719 L 55.390625 55.550781 C 55.390625 48.097656 48.925781 46.152344 48.925781 41.617188 L 48.925781 40.96875 C 48.925781 39.023438 50.539062 37.886719 52.804688 37.886719 L 88.363281 37.886719 C 90.789062 37.886719 92.242188 39.023438 92.242188 40.964844 L 92.242188 41.617188 C 92.242188 46.152344 85.132812 48.097656 85.132812 55.550781 L 85.132812 109.511719 C 85.132812 131.871094 94.507812 142.402344 111.316406 142.402344 C 121.175781 142.402344 135.238281 135.921875 135.238281 109.511719 L 135.238281 55.550781 C 135.238281 48.09375 128.613281 46.148438 128.613281 41.617188 L 128.613281 40.964844 C 128.613281 39.023438 130.230469 37.886719 132.492188 37.886719 L 153.019531 37.886719 C 155.441406 37.886719 156.898438 39.023438 156.898438 40.96875 L 156.898438 41.617188 C 156.898438 46.15625 149.625 48.097656 149.625 55.554688 L 149.625 109.835938 C 149.625 139.164062 131.363281 154.5625 104.691406 154.5625 Z M 104.6875 154.558594 "/>
</g>
</svg>
