<?xml version="1.0" encoding="UTF-8"?>
<svg xmlns="http://www.w3.org/2000/svg" xmlns:xlink="http://www.w3.org/1999/xlink" width="515px" height="512px" viewBox="0 0 518 512" version="1.1">
<g id="surface1">
<path style=" stroke:none;fillRule:nonzero;fill:rgb(40%,77.647059%,72.941176%);fill-opacity:1;" d="M 512.261719 256 L 476.300781 299.898438 L 492.5625 353.660156 L 442.800781 380.796875 L 437.382812 437.027344 L 381.21875 442.449219 L 354.121094 492.277344 L 300.425781 475.992188 L 256.582031 512 L 212.742188 475.992188 L 158.554688 492.277344 L 131.953125 442.449219 L 75.789062 437.027344 L 70.367188 380.792969 L 20.113281 353.667969 L 36.867188 299.902344 L 0.902344 256 L 36.867188 212.101562 L 20.113281 157.84375 L 70.367188 131.207031 L 75.789062 74.972656 L 131.953125 69.542969 L 158.554688 19.226562 L 212.742188 36.007812 L 256.582031 0 L 300.425781 36.007812 L 354.121094 19.234375 L 381.222656 69.550781 L 437.382812 74.980469 L 442.800781 131.214844 L 492.5625 157.847656 L 476.300781 212.101562 Z M 512.261719 256 "/>
<path style=" stroke:none;fillRule:nonzero;fill:rgb(100%,100%,100%);fill-opacity:1;" d="M 279.527344 412.15625 C 202.277344 412.15625 147.898438 371.105469 147.898438 292.027344 L 147.898438 148.136719 C 147.898438 128.257812 130.636719 123.074219 130.636719 110.972656 L 130.636719 109.25 C 130.636719 104.058594 134.949219 101.027344 140.992188 101.027344 L 235.941406 101.027344 C 242.414062 101.027344 246.300781 104.058594 246.300781 109.242188 L 246.300781 110.972656 C 246.300781 123.074219 227.308594 128.257812 227.308594 148.136719 L 227.308594 292.027344 C 227.308594 351.660156 252.34375 379.742188 297.226562 379.742188 C 323.554688 379.742188 361.101562 362.457031 361.101562 292.027344 L 361.101562 148.136719 C 361.101562 128.25 343.40625 123.066406 343.40625 110.972656 L 343.40625 109.242188 C 343.40625 104.066406 347.726562 101.035156 353.765625 101.035156 L 408.578125 101.035156 C 415.046875 101.035156 418.933594 104.066406 418.933594 109.25 L 418.933594 110.980469 C 418.933594 123.082031 399.515625 128.265625 399.515625 148.140625 L 399.515625 292.894531 C 399.515625 371.105469 350.75 412.164062 279.535156 412.164062 Z M 279.527344 412.15625 "/>
</g>
</svg>
