<?xml version="1.0" encoding="UTF-8"?>
<svg xmlns="http://www.w3.org/2000/svg" xmlns:xlink="http://www.w3.org/1999/xlink" width="64px" height="64px" viewBox="0 0 64 63" version="1.1">
<g id="surface1">
<path style=" stroke:none;fill-rule:nonzero;fill:rgb(40%,77.647059%,72.941176%);fill-opacity:1;" d="M 63.292969 31.5 L 58.847656 36.902344 L 60.855469 43.515625 L 54.707031 46.855469 L 54.039062 53.773438 L 47.101562 54.441406 L 43.753906 60.574219 L 37.117188 58.570312 L 31.703125 63 L 26.285156 58.570312 L 19.589844 60.574219 L 16.304688 54.441406 L 9.363281 53.773438 L 8.695312 46.855469 L 2.484375 43.519531 L 4.554688 36.902344 L 0.113281 31.5 L 4.554688 26.097656 L 2.484375 19.421875 L 8.695312 16.144531 L 9.363281 9.226562 L 16.304688 8.558594 L 19.589844 2.367188 L 26.285156 4.429688 L 31.703125 0 L 37.117188 4.429688 L 43.753906 2.367188 L 47.101562 8.558594 L 54.039062 9.226562 L 54.707031 16.144531 L 60.855469 19.421875 L 58.847656 26.097656 Z M 63.292969 31.5 "/>
<path style=" stroke:none;fill-rule:nonzero;fill:rgb(100%,100%,100%);fill-opacity:1;" d="M 34.535156 50.714844 C 24.992188 50.714844 18.273438 45.664062 18.273438 35.933594 L 18.273438 18.226562 C 18.273438 15.78125 16.140625 15.144531 16.140625 13.65625 L 16.140625 13.441406 C 16.140625 12.804688 16.671875 12.429688 17.421875 12.429688 L 29.152344 12.429688 C 29.949219 12.429688 30.429688 12.804688 30.429688 13.441406 L 30.429688 13.65625 C 30.429688 15.144531 28.085938 15.78125 28.085938 18.226562 L 28.085938 35.933594 C 28.085938 43.269531 31.179688 46.726562 36.722656 46.726562 C 39.976562 46.726562 44.613281 44.597656 44.613281 35.933594 L 44.613281 18.226562 C 44.613281 15.78125 42.429688 15.144531 42.429688 13.65625 L 42.429688 13.441406 C 42.429688 12.804688 42.960938 12.433594 43.707031 12.433594 L 50.480469 12.433594 C 51.28125 12.433594 51.761719 12.804688 51.761719 13.441406 L 51.761719 13.65625 C 51.761719 15.144531 49.359375 15.78125 49.359375 18.226562 L 49.359375 36.039062 C 49.359375 45.664062 43.335938 50.714844 34.535156 50.714844 Z M 34.535156 50.714844 "/>
</g>
</svg>
