<?xml version="1.0" encoding="iso-8859-1"?>
<!-- Uploaded to: SVG Repo, www.svgrepo.com, Generator: SVG Repo Mixer Tools -->
<svg height="800px" width="800px" version="1.1" id="Layer_1" xmlns="http://www.w3.org/2000/svg" xmlns:xlink="http://www.w3.org/1999/xlink" 
	 viewBox="0 0 511.993 511.993" xml:space="preserve">
<circle style="fill:#59D8FF;" cx="255.979" cy="255.996" r="255.979"/>
<path style="fill:#00C3FF;" d="M355.461,402.945c-141.373,0-255.979-114.606-255.979-255.979c0-39.638,9.016-77.168,25.099-110.661
	C49.962,81.031,0,162.666,0,255.994c0,141.373,114.606,255.979,255.979,255.979c101.735,0,189.602-59.353,230.88-145.318
	C448.444,389.681,403.507,402.945,355.461,402.945z"/>
<g>
	<path style="fill:#B4FF87;" d="M333.631,64.58l10.424,15.788c1.605,2.431,0.357,5.718-2.457,6.472l-7.214,1.933
		c-2.275,0.61-4.615-0.741-5.225-3.017l-4.646-17.337c-0.61-2.275,0.741-4.615,3.017-5.225l1.435-0.384
		C330.741,62.335,332.619,63.048,333.631,64.58z"/>
	<path style="fill:#B4FF87;" d="M320.559,87.757l0.076,0.284c0.61,2.275-0.741,4.615-3.017,5.225l-0.284,0.076
		c-2.275,0.61-4.616-0.741-5.225-3.017l-0.076-0.284c-0.61-2.275,0.741-4.615,3.017-5.225l0.284-0.076
		C317.609,84.13,319.948,85.48,320.559,87.757z"/>
	<path style="fill:#B4FF87;" d="M364.387,33.864l-0.474,7.906c-0.1,1.652-0.851,3.197-2.089,4.296l-8.163,7.239
		c-2.579,2.287-2.816,6.232-0.529,8.811l5.191,5.853c1.851,2.088,5.205,1.748,6.6-0.668l0.284-0.493
		c1.723-2.985,5.54-4.008,8.526-2.285l0,0c2.985,1.723,6.802,0.7,8.526-2.285l3.12-5.405l0.99-4.834l5.047,5.691
		c2.52,2.842,1.939,7.256-1.231,9.349l-16.443,10.857c-0.559,0.37-1.176,0.647-1.824,0.82l-13.576,3.638
		c-1.599,0.429-2.963,1.474-3.79,2.908l-4.949,8.572l-2.985,0.8c-3.06,0.82-4.877,3.965-4.057,7.026l1.469,5.482
		c0.892,3.33-1.084,6.753-4.413,7.644l-13.521,3.623c-3.33,0.892-5.306,4.315-4.413,7.644l3.623,13.521
		c0.892,3.33,4.315,5.306,7.644,4.413l23.73-6.358c2.595-0.696,4.454-2.973,4.615-5.655l1.403-23.372l8.526-2.285l23.304,7.883
		c2.926,0.99,5.774-1.68,4.974-4.663l0,0c-0.265-0.991-0.914-1.836-1.801-2.348l-9.424-5.441l8.526-2.285l15.558,3.183
		c2.316,0.474,4.166,2.216,4.777,4.5l2.409,8.992c0.641,2.394,3.101,3.814,5.495,3.172l1.513-0.405
		c1.641-0.44,2.894-1.769,3.234-3.434l0.898-4.391c1.031-5.039,7.372-6.738,10.784-2.889l4.813,5.428l8.526-2.285l9.115,13.805
		c2.714,4.11-0.179,9.597-5.104,9.68l-24.253,0.408c-0.511,0.008-1.018,0.079-1.511,0.212l-12.738,3.413
		c-1.972,0.529-3.143,2.556-2.614,4.528l0,0c0.653,2.438-1.274,4.798-3.792,4.648l-18.252-1.095
		c-2.682-0.161-4.96-2.019-5.655-4.615l-1.789-6.678c-0.892-3.33-4.315-5.306-7.644-4.413l-10.045,2.691
		c-0.648,0.174-1.263,0.45-1.824,0.82l-21.603,14.264c-0.559,0.37-1.176,0.647-1.824,0.82l-12.347,3.309
		c-2.284,0.612-4.026,2.461-4.5,4.777l-2.837,13.862c-0.23,1.123-0.639,2.202-1.212,3.195l-9.408,16.296
		c-1.414,2.45-1.798,5.361-1.065,8.093l6.851,25.569c0.732,2.733,2.52,5.061,4.969,6.476l24.78,14.306
		c2.45,1.414,5.361,1.798,8.093,1.065l49.386-13.233c3.33-0.892,6.753,1.084,7.644,4.413l7.141,26.653
		c0.251,0.936,0.716,1.8,1.359,2.525l11.14,12.563c0.642,0.725,1.108,1.589,1.359,2.525l3.989,14.887
		c0.132,0.493,0.324,0.968,0.572,1.414l32.59,58.707c1.39,2.504,4.307,3.74,7.073,2.999l7.032-1.884
		c1.893-0.507,3.46-1.853,4.217-3.661c21.132-50.454,26.382-108.014,11.129-164.939c-19.394-72.406-67.995-129.16-129.714-161.085
		C369.495,26.575,364.657,29.346,364.387,33.864z"/>
	<path style="fill:#B4FF87;" d="M255.37,295.6L247,282.924c-2.093-3.17-5.981-4.646-9.65-3.663l-7.375,1.977
		c-2.261,0.606-4.67,0.289-6.698-0.882l-15.289-8.827c-2.028-1.171-4.437-1.487-6.698-0.882l-9.989,2.677
		c-2.261,0.606-4.67,0.289-6.698-0.882l-2.134-1.232c-3.29-1.9-7.427-1.48-10.27,1.04l-8.448,7.492
		c-1.025,0.909-2.248,1.567-3.572,1.922l-8.894,2.383c-3.67,0.984-7.557-0.492-9.65-3.663l-9.205-13.941
		c-1.663-2.518-4.497-4.013-7.515-3.962l-19.021,0.32c-6.103,0.103-10.465-5.872-8.51-11.654l4.67-13.807
		c0.946-2.796,3.226-4.934,6.077-5.698l15.746-4.219c3.229-0.865,6.671,0.168,8.889,2.67l7.239,8.163
		c1.371,1.547,3.497,2.185,5.494,1.65l0,0c2.911-0.78,4.637-3.771,3.857-6.682l-4.405-16.44c-0.659-2.459-0.224-5.082,1.192-7.197
		l48.142-71.875c1.19-1.776,2.984-3.061,5.05-3.615l19.072-5.11c5.82-1.56,8.401-8.362,5.082-13.389l-6.619-10.023
		c-1.289-1.953-3.303-3.315-5.596-3.784L183.4,96.088c-4.18-0.856-8.373,1.401-9.961,5.36l-10.585,26.373
		c-1.746,4.348-6.582,6.575-11.02,5.073l-10.419-3.524c-5.769-1.952-7.875-9.021-4.115-13.811l17.731-22.589
		c1.179-1.503,2.813-2.581,4.659-3.076l27-7.235c2.355-0.63,4.775,0.767,5.405,3.12l0,0c0.63,2.355,3.05,3.752,5.405,3.12
		l12.789-3.427c4.708-1.262,7.503-6.102,6.242-10.81l-2.285-8.526c-1.262-4.708-6.102-7.503-10.81-6.242L154.08,73.12
		c-6.732,1.804-12.781,5.56-17.383,10.797l-11.321,12.882c-1.125,1.28-3.222,0.789-3.663-0.856l-1.253-4.676
		c-1.262-4.708-6.102-7.503-10.81-6.242L96.13,88.648c-2.261,0.606-4.189,2.086-5.36,4.112l-7.037,12.189
		c-2.104,3.644-6.487,5.296-10.473,3.948l-15.228-5.152c-3.753-1.269-7.868,0.107-10.172,3.33
		C25.279,138.668,9.958,175.226,3.484,213.992l3.404-0.913l28.414,47.392c2.741,4.571,8.179,6.772,13.327,5.392l0,0
		c5.219-1.398,10.793-0.096,14.851,3.471l14.662,12.885c1.759,1.545,4.059,2.329,6.395,2.178l36.958-2.383
		c2.719-0.175,5.365,0.914,7.172,2.952l6.612,7.455c2.218,2.502,5.66,3.535,8.889,2.67l11.783-3.157
		c4.708-1.262,9.549,1.532,10.81,6.242l1.338,4.994c0.606,2.261,0.289,4.67-0.882,6.698l-3.372,5.84
		c-0.685,1.186-1.084,2.517-1.166,3.885l-1.179,19.639c-0.222,3.692,1.882,7.129,5.269,8.613l42.245,18.509
		c2.456,1.076,4.29,3.21,4.983,5.8l18.923,70.624c0.354,1.324,1.012,2.547,1.922,3.572l34.283,38.662
		c2.218,2.502,5.66,3.535,8.889,2.67l1.718-0.46c5.269-1.411,8.009-7.216,5.75-12.182l-16.038-35.253
		c-1.18-2.595-1.035-5.6,0.39-8.068l20.867-36.143c1.171-2.028,1.487-4.437,0.882-6.698l-3.623-13.521
		c-1.262-4.708,1.532-9.549,6.242-10.81l10.906-2.922c3.67-0.984,6.299-4.205,6.526-7.997l2.56-42.645
		c0.238-3.974-2.211-7.614-5.982-8.891l-21.23-7.182c-1.651-0.558-3.43-0.616-5.114-0.165l-16.852,4.515
		C261.351,300.245,257.464,298.77,255.37,295.6z"/>
</g>
<g>
	<path style="fill:#9BF57D;" d="M84.537,284.397l36.958-2.383c2.719-0.175,5.366,0.915,7.173,2.952l6.612,7.455
		c2.218,2.502,5.659,3.535,8.888,2.67l1.305-0.35c-7.135-10.125-13.573-20.852-19.245-32.117c-0.436-0.059-0.865-0.153-1.313-0.145
		l-19.021,0.32c-6.103,0.103-10.465-5.871-8.51-11.654l4.672-13.807c0.946-2.796,3.226-4.934,6.077-5.698l4.615-1.236
		c-1.896-5.538-3.682-11.14-5.22-16.878c-11.606-43.313-11.301-86.977-1.202-127.614l-10.198,2.733
		c-2.261,0.606-4.189,2.085-5.36,4.112l-7.037,12.187c-2.104,3.644-6.487,5.296-10.473,3.948l-15.228-5.152
		c-3.669-1.241-7.658,0.076-9.988,3.145c-3.259,4.546-6.354,9.201-9.308,13.945c-1.046,1.684-2.028,3.406-3.036,5.114
		c-2.086,3.529-4.085,7.108-5.999,10.733c-1.017,1.928-2.047,3.848-3.015,5.801c-2.407,4.854-4.691,9.77-6.788,14.772
		c-0.757,1.808-1.423,3.656-2.139,5.482c-1.517,3.862-2.959,7.754-4.29,11.691c-0.811,2.403-1.575,4.824-2.316,7.254
		c-1.063,3.484-2.024,7.003-2.939,10.535c-0.601,2.326-1.26,4.635-1.795,6.981c-1.116,4.881-2.04,9.816-2.87,14.774l3.341-0.895
		l28.414,47.39c2.74,4.571,8.179,6.772,13.327,5.392c5.219-1.398,10.793-0.096,14.852,3.471l14.662,12.885
		C79.9,283.764,82.2,284.549,84.537,284.397z"/>
	<path style="fill:#9BF57D;" d="M290.703,395.578c0.082-0.142,0.082-0.313,0.156-0.459c-49.129-12.721-93.643-39.846-127.473-77.881
		c-0.276,0.777-0.658,1.526-0.707,2.356l-1.179,19.639c-0.222,3.692,1.881,7.129,5.269,8.613l42.246,18.51
		c2.457,1.076,4.29,3.21,4.983,5.8l18.923,70.624c0.354,1.324,1.012,2.547,1.922,3.572l34.283,38.662
		c2.218,2.502,5.659,3.535,8.888,2.67l1.718-0.46c5.269-1.411,8.009-7.216,5.75-12.181l-16.038-35.253
		c-1.18-2.595-1.035-5.601,0.39-8.069L290.703,395.578z"/>
</g>
<path style="fill:#FF6991;" d="M310.113,151.706c-21.157,0-40.312,8.64-54.2,22.609c-13.888-13.969-33.043-22.609-54.2-22.609
	c-42.406,0-76.783,34.692-76.783,77.487c0,59.254,68.881,130.473,130.983,159.53c62.103-29.057,130.983-100.276,130.983-159.53
	C386.897,186.399,352.521,151.706,310.113,151.706z"/>
<path style="fill:#FF507D;" d="M208.51,219.711c0-25.074,9.437-47.302,24.011-61.463c-9.436-4.181-19.842-6.542-30.808-6.542
	c-42.407,0-76.784,34.691-76.784,77.486c0,59.254,68.881,130.474,130.983,159.532c12.583-5.887,25.425-13.572,37.936-22.47
	C250.326,332.303,208.51,271.451,208.51,219.711z"/>
</svg>